{"glyphs":{"0":{"ha":428,"x_min":63,"x_max":361,"o":"m 249 0 l 174 0 q 93 34 124 0 q 63 126 63 68 l 63 438 q 93 528 63 496 q 174 561 124 561 l 249 561 q 331 528 301 561 q 361 438 361 496 l 361 126 q 331 34 361 68 q 249 0 301 0 m 319 435 q 249 515 319 515 l 174 515 q 106 435 106 515 l 106 128 q 174 46 106 46 l 249 46 q 319 128 319 46 l 319 435 z "},"1":{"ha":256,"x_min":47,"x_max":182,"o":"m 169 0 l 160 0 q 147 18 147 0 l 147 506 l 71 450 q 61 447 67 449 q 51 444 56 444 q 48 448 49 444 q 47 463 47 451 l 47 468 q 58 494 47 488 l 147 557 q 161 561 153 561 l 169 561 q 178 556 174 561 q 182 543 182 551 l 182 18 q 178 5 182 10 q 169 0 174 0 z "},"2":{"ha":396,"x_min":56,"x_max":340,"o":"m 325 0 l 75 0 q 60 18 60 0 l 60 89 q 108 200 60 160 l 260 325 q 297 404 297 356 l 297 439 q 228 515 297 515 l 164 515 q 97 439 97 515 l 97 400 q 81 379 97 379 l 69 379 q 56 400 56 379 l 56 439 q 85 531 56 500 q 164 561 115 561 l 228 561 q 308 531 278 561 q 338 439 338 500 l 338 403 q 286 289 338 332 l 133 163 q 100 92 100 133 l 100 46 l 325 46 q 340 28 340 46 l 340 18 q 325 0 340 0 z "},"3":{"ha":413,"x_min":63,"x_max":347,"o":"m 238 0 l 172 0 q 92 31 122 0 q 63 122 63 61 l 63 164 q 76 183 63 183 l 89 183 q 104 164 104 183 l 104 122 q 172 46 104 46 l 238 46 q 306 122 306 46 l 306 182 q 238 260 306 260 l 190 260 q 175 278 175 260 l 175 288 q 190 304 175 304 l 238 304 q 306 383 306 304 l 306 439 q 238 515 306 515 l 172 515 q 104 439 104 515 l 104 407 q 89 388 104 388 l 76 388 q 63 407 63 388 l 63 439 q 92 531 63 500 q 172 561 122 561 l 238 561 q 317 531 288 561 q 347 439 347 500 l 347 383 q 303 283 347 324 q 347 183 347 243 l 347 122 q 317 31 347 61 q 238 0 288 0 z "},"4":{"ha":435,"x_min":46,"x_max":394,"o":"m 376 114 l 328 114 l 328 18 q 313 0 328 0 l 301 0 q 286 18 286 0 l 286 114 l 63 114 q 46 132 46 114 l 46 142 l 46 143 l 47 150 q 50 156 50 153 q 53 161 50 158 l 267 547 q 290 561 275 561 l 313 561 q 328 543 328 561 l 328 158 l 376 158 q 394 142 394 158 l 394 132 q 376 114 394 114 m 286 496 l 99 158 l 286 158 l 286 496 z "},"5":{"ha":394,"x_min":60,"x_max":339,"o":"m 228 0 l 169 0 q 89 34 118 0 q 60 126 60 68 l 60 158 q 74 178 60 178 l 85 178 q 101 158 101 178 l 101 128 q 169 46 101 46 l 228 46 q 297 128 297 46 l 297 232 q 228 311 297 311 l 156 311 q 127 307 136 311 q 113 293 118 303 q 107 283 110 288 q 101 274 104 279 q 88 267 97 267 l 74 267 q 60 285 60 267 l 60 543 q 74 561 60 561 l 314 561 q 331 543 331 561 l 331 535 q 314 515 331 515 l 101 515 l 101 339 q 131 353 119 350 q 156 357 143 357 l 228 357 q 308 326 278 357 q 339 232 339 294 l 339 126 q 308 34 339 68 q 228 0 278 0 z "},"6":{"ha":404,"x_min":57,"x_max":347,"o":"m 235 0 l 167 0 q 87 34 117 0 q 57 126 57 68 l 57 438 q 87 528 57 496 q 167 561 117 561 l 307 561 q 325 543 325 561 l 325 535 q 307 515 325 515 l 167 515 q 99 435 99 515 l 99 339 l 235 339 q 317 306 288 339 q 347 214 347 272 l 347 126 q 317 34 347 68 q 235 0 288 0 m 306 213 q 235 293 306 293 l 99 293 l 99 128 q 167 46 99 46 l 235 46 q 306 128 306 46 l 306 213 z "},"7":{"ha":310,"x_min":22,"x_max":289,"o":"m 285 521 l 121 17 q 112 3 117 6 q 101 0 107 0 l 93 0 q 81 4 83 0 q 79 19 79 8 l 79 28 l 240 515 l 38 515 q 22 535 22 515 l 22 543 q 38 561 22 561 l 271 561 q 289 543 289 561 l 289 536 q 285 521 289 525 z "},"8":{"ha":413,"x_min":53,"x_max":356,"o":"m 244 0 l 164 0 q 83 31 114 0 q 53 122 53 61 l 53 183 q 96 283 53 240 q 63 328 72 304 q 53 383 53 353 l 53 439 q 83 531 53 500 q 164 561 114 561 l 244 561 q 325 531 294 561 q 356 439 356 500 l 356 383 q 346 328 356 351 q 313 283 336 304 q 356 183 356 240 l 356 122 q 325 31 356 61 q 244 0 294 0 m 314 439 q 244 515 314 515 l 164 515 q 96 439 96 515 l 96 383 q 164 304 96 304 l 244 304 q 314 383 314 304 l 314 439 m 314 182 q 244 260 314 260 l 164 260 q 96 182 96 260 l 96 122 q 164 46 96 46 l 244 46 q 314 122 314 46 l 314 182 z "},"9":{"ha":394,"x_min":53,"x_max":344,"o":"m 232 0 l 92 0 q 81 4 86 0 q 76 18 76 8 l 76 28 q 81 41 76 36 q 92 46 86 46 l 232 46 q 301 128 301 46 l 301 222 l 163 222 q 83 256 113 222 q 53 347 53 289 l 53 438 q 83 528 53 496 q 163 561 113 561 l 232 561 q 313 528 282 561 q 344 438 344 496 l 344 126 q 313 34 344 68 q 232 0 282 0 m 301 435 q 232 515 301 515 l 163 515 q 94 435 94 515 l 94 349 q 163 268 94 268 l 301 268 l 301 435 z "}," ":{"ha":250,"x_min":0,"x_max":0,"o":""},"!":{"ha":222,"x_min":75,"x_max":122,"o":"m 118 215 q 115 201 117 204 q 110 197 113 197 l 83 196 q 81 197 82 196 l 81 204 l 79 215 q 78 314 78 244 q 78 506 78 383 l 78 582 q 76 595 78 588 q 81 603 75 603 l 117 603 q 122 595 122 603 q 121 582 121 588 l 121 506 l 121 360 q 119 263 121 300 q 118 215 118 226 m 115 0 l 81 0 q 77 7 76 0 q 78 19 78 14 l 78 115 q 76 128 78 121 q 81 136 75 136 l 115 136 q 120 128 121 136 q 119 115 119 121 l 119 19 q 120 7 119 14 q 115 0 121 0 z "},"\"":{"ha":303,"x_min":69,"x_max":219,"o":"m 215 461 q 199 442 214 442 l 196 442 q 181 461 182 442 l 176 611 q 193 631 176 631 l 206 631 q 219 611 219 631 l 215 461 m 110 461 q 94 442 107 442 l 92 442 q 81 447 83 442 q 76 461 78 451 l 69 611 q 74 626 69 621 q 86 631 79 631 l 99 631 q 115 611 115 631 l 110 461 z "},"#":{"ha":636,"x_min":68,"x_max":569,"o":"m 549 396 l 472 396 l 418 206 l 489 206 q 502 201 496 206 q 508 188 508 196 l 508 175 q 502 160 508 165 q 489 156 496 156 l 406 156 l 368 19 q 360 6 365 13 q 346 0 356 0 l 338 0 q 320 11 322 0 q 321 29 318 22 l 356 156 l 201 156 l 164 19 q 156 6 161 13 q 143 0 150 0 l 132 0 q 117 8 119 0 q 117 34 114 15 q 130 82 121 53 q 151 156 139 111 l 88 156 q 68 175 68 156 l 68 188 q 88 206 68 206 l 164 206 l 218 396 l 147 396 q 129 415 129 396 l 129 428 q 147 447 129 447 l 231 447 l 268 585 q 277 597 271 592 q 292 603 283 603 l 299 603 q 315 592 313 603 q 315 575 318 581 l 281 447 l 435 447 l 472 585 q 481 597 475 592 q 494 603 486 603 l 501 603 q 516 597 513 603 q 519 581 519 592 l 519 572 l 485 447 l 549 447 q 569 428 569 447 l 569 415 q 549 396 569 396 m 268 396 l 215 206 l 368 206 l 421 396 l 268 396 z "},"$":{"ha":465,"x_min":82,"x_max":385,"o":"m 268 -3 l 268 -71 q 250 -93 268 -93 l 239 -93 q 222 -71 222 -93 l 222 -3 l 201 -3 q 114 32 146 -3 q 82 133 82 67 l 82 164 q 99 185 82 185 l 111 185 q 129 164 129 185 l 129 133 q 145 70 129 90 q 201 50 161 50 l 267 50 q 340 133 340 50 l 340 199 q 323 264 340 247 q 264 281 306 281 l 206 281 q 114 308 146 281 q 82 408 82 336 l 82 472 q 114 573 82 539 q 201 607 146 607 l 222 607 l 222 675 q 239 696 222 696 l 250 696 q 268 675 268 696 l 268 607 q 354 568 324 603 q 385 472 385 533 l 385 444 q 368 422 385 422 l 356 422 q 340 444 340 422 l 340 472 q 267 556 340 556 l 201 556 q 129 472 129 556 l 129 408 q 145 347 129 364 q 201 331 161 331 l 267 331 q 385 200 385 331 l 385 133 q 353 35 385 71 q 268 -3 322 0 z "},"%":{"ha":665,"x_min":58,"x_max":608,"o":"m 185 318 l 171 318 q 58 442 58 318 l 58 486 q 171 607 58 607 l 185 607 q 297 486 297 607 l 297 442 q 185 318 297 318 m 496 0 l 482 0 q 369 122 369 0 l 369 167 q 482 289 369 289 l 496 289 q 608 167 608 289 l 608 122 q 496 0 608 0 m 239 17 q 229 5 233 10 q 215 0 225 0 l 207 0 q 190 11 192 0 q 192 31 189 22 l 429 588 q 432 592 431 590 q 436 597 433 594 q 451 603 442 603 l 458 603 q 476 594 474 603 q 472 572 478 585 l 239 17 m 247 485 q 234 542 247 528 q 185 557 221 557 l 171 557 q 122 543 135 557 q 108 485 108 529 l 108 442 q 122 383 108 397 q 171 369 135 369 l 185 369 q 234 383 221 369 q 247 442 247 397 l 247 485 m 558 165 q 545 224 558 210 q 496 239 532 239 l 482 239 q 433 224 446 239 q 419 165 419 210 l 419 124 q 433 65 419 81 q 482 50 446 50 l 496 50 q 545 65 532 50 q 558 124 558 81 l 558 165 z "},"&":{"ha":526,"x_min":17,"x_max":454,"o":"m 385 -1 l 360 29 q 304 0 332 0 l 96 0 q 42 26 67 0 q 17 96 17 51 l 17 261 q 20 292 17 279 q 33 318 24 306 q 58 344 42 331 q 100 375 74 357 q 50 398 63 382 q 38 424 38 414 l 38 513 q 53 563 38 544 q 113 581 68 581 l 229 581 q 278 570 264 581 q 293 521 292 560 l 296 401 q 267 353 296 375 q 185 332 238 332 q 250 256 217 296 q 332 153 283 215 l 332 233 l 383 233 l 383 96 l 383 89 l 454 -1 l 385 -1 m 242 497 q 237 522 242 513 q 213 531 232 531 l 118 531 q 95 520 101 531 q 89 494 89 510 l 89 422 q 99 394 89 400 q 124 388 110 388 l 213 388 q 237 401 232 388 q 242 425 242 414 l 242 497 m 115 329 q 78 302 89 322 q 68 250 68 282 l 68 96 q 69 86 68 93 q 74 72 69 79 q 87 58 78 64 q 113 51 96 51 l 288 51 q 308 56 299 51 q 326 72 317 60 q 221 201 272 140 q 115 329 169 263 z "},"'":{"ha":174,"x_min":65,"x_max":108,"o":"m 104 461 q 88 442 103 442 l 85 442 q 68 460 69 442 l 65 611 q 81 631 65 631 l 94 631 q 108 611 108 631 l 104 461 z "},"(":{"ha":260,"x_min":68,"x_max":183,"o":"m 168 -96 l 165 -96 q 95 -60 122 -96 q 68 39 68 -25 l 68 467 q 95 567 68 531 q 165 603 122 603 l 168 603 q 178 598 174 603 q 183 582 183 593 l 183 572 q 178 556 183 561 q 168 551 174 551 l 165 551 q 119 528 133 551 q 106 465 106 506 l 106 40 q 119 -22 106 0 q 165 -44 133 -44 l 168 -44 q 178 -50 174 -44 q 183 -67 183 -56 l 183 -76 q 178 -91 183 -86 q 168 -96 174 -96 z "},")":{"ha":260,"x_min":68,"x_max":183,"o":"m 85 -96 l 82 -96 q 68 -76 68 -96 l 68 -67 q 82 -44 68 -44 l 85 -44 q 131 -22 117 -44 q 146 40 146 0 l 146 465 q 131 528 146 506 q 85 551 117 551 l 82 551 q 68 572 68 551 l 68 582 q 82 603 68 603 l 85 603 q 156 567 128 603 q 183 467 183 531 l 183 39 q 156 -60 183 -25 q 85 -96 128 -96 z "},"*":{"ha":382,"x_min":78,"x_max":306,"o":"m 288 488 q 263 478 276 482 q 221 467 249 474 q 244 439 239 447 q 256 422 250 431 l 265 408 q 268 396 271 401 q 261 385 265 390 l 250 379 q 229 382 239 368 q 213 408 219 394 q 194 444 206 421 q 169 406 178 421 q 153 379 161 392 q 135 374 144 369 q 128 378 132 376 q 122 383 125 381 q 114 399 114 390 q 117 410 114 407 l 133 433 q 141 445 136 439 q 161 467 146 451 l 93 489 q 83 513 78 496 q 91 531 88 524 q 108 538 94 539 l 133 526 q 147 522 139 525 q 155 518 150 521 q 175 504 160 515 q 169 546 169 533 q 169 569 169 558 l 169 583 q 174 597 169 590 q 186 603 178 603 l 197 603 q 210 597 206 603 q 215 583 215 590 l 215 569 q 215 546 215 558 q 214 510 214 533 q 249 526 236 521 q 275 536 263 531 q 294 529 288 540 q 297 522 294 528 l 299 513 q 298 494 306 500 q 288 488 290 489 z "},"+":{"ha":507,"x_min":64,"x_max":444,"o":"m 425 276 l 278 276 l 278 117 q 272 103 278 113 q 267 100 269 101 q 258 99 264 99 l 249 99 q 238 100 238 99 l 232 119 l 232 276 l 81 276 q 67 282 76 276 q 64 296 64 285 l 64 306 q 68 319 64 315 q 81 325 79 325 l 232 325 l 232 482 q 236 499 232 493 q 240 501 238 500 q 249 503 242 503 l 258 503 q 272 499 268 503 q 278 482 278 486 l 278 325 l 425 325 q 444 306 444 325 l 444 296 q 425 276 444 276 z "},",":{"ha":175,"x_min":64,"x_max":104,"o":"m 101 14 q 97 -26 99 -10 q 94 -54 94 -43 l 93 -72 q 92 -75 92 -75 l 92 -82 q 88 -93 92 -89 q 81 -96 82 -96 q 78 -95 79 -96 q 75 -94 78 -94 q 69 -87 69 -93 q 68 -78 69 -81 l 65 108 q 65 121 65 114 q 69 128 64 128 l 97 128 q 99 125 97 126 l 103 106 q 104 59 104 82 q 101 14 104 36 z "},"-":{"ha":321,"x_min":50,"x_max":272,"o":"m 50 240 q 67 247 58 247 l 254 247 q 268 242 264 247 l 271 239 l 272 238 l 272 199 q 268 196 272 200 q 254 192 261 192 l 67 192 q 51 196 57 192 q 50 199 50 197 l 50 240 z "},".":{"ha":175,"x_min":57,"x_max":94,"o":"m 89 0 l 61 0 q 58 3 60 0 q 57 18 57 6 l 57 111 q 58 126 57 124 q 61 129 60 129 l 89 129 q 92 126 90 129 q 94 111 94 121 l 94 18 q 94 8 94 11 q 92 3 93 6 q 89 0 90 0 z "},"/":{"ha":344,"x_min":49,"x_max":275,"o":"m 274 576 l 97 -24 q 96 -25 96 -24 q 89 -33 92 -29 q 78 -37 85 -37 l 68 -37 q 53 -31 57 -37 q 53 -8 49 -25 l 231 585 l 238 600 q 249 603 243 603 l 260 603 q 275 583 275 603 q 274 576 275 578 z "},":":{"ha":153,"x_min":57,"x_max":94,"o":"m 64 358 q 60 363 61 360 q 57 379 57 367 l 57 457 q 61 474 57 469 q 61 478 63 478 l 89 478 q 89 477 90 478 q 89 474 88 476 q 94 457 94 468 l 94 379 q 89 364 94 368 l 86 358 l 64 358 m 86 125 l 93 119 q 94 104 94 118 l 94 19 q 90 4 94 13 q 89 0 88 0 l 63 0 q 57 8 63 1 q 57 19 57 8 l 57 104 q 60 122 57 115 q 61 125 63 125 l 86 125 z "},";":{"ha":151,"x_min":56,"x_max":96,"o":"m 64 358 q 60 365 63 360 q 58 371 58 368 q 57 381 57 374 l 57 457 q 61 474 57 469 q 61 478 63 478 l 89 478 q 89 477 90 478 q 89 474 88 476 q 94 457 94 468 l 94 381 q 89 365 94 371 l 86 358 l 64 358 m 93 7 q 88 -31 89 -15 q 86 -58 86 -46 l 85 -75 q 83 -79 83 -76 l 83 -82 q 79 -93 83 -89 q 72 -96 74 -96 q 67 -94 69 -96 q 62 -88 63 -94 q 60 -79 61 -82 l 57 96 q 56 107 57 101 q 61 113 56 113 l 89 113 l 90 111 l 94 93 q 96 48 96 69 q 93 7 96 26 z "},"<":{"ha":490,"x_min":35,"x_max":443,"o":"m 433 71 q 417 74 432 69 l 49 204 q 38 213 43 207 q 35 226 35 215 l 35 242 q 38 254 35 250 q 50 263 46 263 l 419 411 q 436 411 425 417 q 443 394 443 407 l 443 383 q 431 361 443 367 l 94 235 l 431 121 l 435 118 q 440 110 438 111 q 443 100 443 110 l 443 88 q 433 71 443 81 z "},"=":{"ha":532,"x_min":64,"x_max":458,"o":"m 82 339 l 439 339 q 453 335 449 339 q 458 322 458 332 l 458 311 q 451 297 458 307 q 439 293 447 293 l 81 293 q 67 300 75 293 q 64 311 64 303 l 64 322 q 66 332 64 329 q 82 339 68 335 m 451 113 q 439 108 447 108 l 81 108 q 68 113 74 108 q 64 126 64 117 l 64 138 q 67 149 64 146 q 81 154 72 154 l 439 154 q 454 147 443 154 q 458 138 458 143 l 458 126 q 451 113 458 119 z "},">":{"ha":553,"x_min":63,"x_max":471,"o":"m 467 210 q 460 205 463 207 q 456 201 458 203 l 88 71 q 71 68 72 67 q 63 85 63 72 l 63 97 q 64 106 63 104 q 68 113 65 108 l 71 115 q 72 118 72 117 l 410 232 l 74 358 q 63 381 63 363 l 63 392 q 68 408 63 404 q 85 408 79 414 l 454 260 q 460 257 454 260 l 467 251 q 471 239 471 244 l 471 224 q 467 210 471 214 z "},"?":{"ha":413,"x_min":67,"x_max":338,"o":"m 294 343 l 263 314 q 251 302 256 307 q 244 293 247 297 q 233 266 233 276 q 233 238 233 256 l 233 203 q 228 188 233 194 q 215 182 224 182 l 206 182 q 192 189 196 182 q 188 203 188 196 l 188 233 q 197 299 188 274 q 228 340 208 321 q 264 376 247 360 q 287 407 281 393 q 293 439 293 421 l 293 469 q 219 551 293 551 l 182 551 q 111 469 111 551 l 111 428 q 94 406 111 406 l 82 406 q 67 428 67 406 l 67 471 q 98 567 67 533 q 182 601 129 601 l 219 601 q 306 567 274 601 q 338 471 338 533 l 338 438 q 294 343 338 383 m 218 0 l 201 0 q 188 6 192 0 q 185 19 185 13 l 185 103 q 201 126 185 126 l 218 126 q 235 103 235 126 l 235 19 q 230 6 235 13 q 218 0 225 0 z "},"@":{"ha":665,"x_min":74,"x_max":590,"o":"m 463 74 l 443 74 q 424 78 432 74 q 407 101 417 82 q 324 75 367 75 q 231 108 264 75 q 197 208 197 142 l 197 303 q 231 402 197 368 q 324 436 264 436 l 438 436 q 457 415 457 436 l 457 121 q 521 146 501 125 q 540 207 540 167 l 540 429 q 463 514 540 514 l 297 514 q 175 460 226 514 q 124 325 124 407 l 124 186 q 175 50 124 103 q 297 -3 225 -3 l 456 -3 q 474 -25 474 -3 l 474 -35 q 456 -56 474 -56 l 299 -56 q 142 10 210 -56 q 74 188 74 75 l 74 324 q 142 500 74 435 q 299 565 210 565 l 463 565 q 556 528 522 565 q 590 431 590 492 l 590 206 q 556 108 590 143 q 463 74 522 74 m 418 363 q 408 389 418 379 q 382 397 399 399 l 331 392 q 264 369 290 389 q 238 301 238 350 l 238 208 q 324 113 238 113 l 325 113 q 418 204 418 113 l 418 363 z "},"A":{"ha":444,"x_min":28,"x_max":414,"o":"m 394 0 l 382 0 q 369 6 374 0 q 363 19 365 11 l 321 150 l 121 150 l 76 17 q 57 0 69 0 l 47 0 q 33 8 38 0 q 31 25 28 17 l 192 542 l 196 550 q 197 552 197 551 q 199 554 197 553 q 211 561 204 561 l 229 561 q 250 544 243 561 l 411 25 q 409 8 414 17 q 394 0 404 0 m 219 486 q 176 328 197 401 q 139 204 154 254 l 303 204 l 219 486 z "},"B":{"ha":439,"x_min":67,"x_max":376,"o":"m 263 0 l 85 0 q 67 19 67 0 l 67 540 q 85 561 67 561 l 257 561 q 341 531 311 561 q 371 438 371 500 l 371 383 q 361 330 371 353 q 328 286 351 307 q 376 185 376 239 l 376 124 q 344 31 376 63 q 263 0 313 0 m 325 438 q 257 511 325 511 l 114 511 l 114 308 l 257 308 q 307 326 289 308 q 325 385 325 344 l 325 438 m 328 185 q 313 240 328 221 q 257 260 297 260 l 114 260 l 114 50 l 263 50 q 328 124 328 50 l 328 185 z "},"C":{"ha":440,"x_min":60,"x_max":383,"o":"m 271 0 l 172 0 q 89 33 118 0 q 60 128 60 65 l 60 433 q 90 526 60 492 q 172 561 119 561 l 271 561 q 353 526 324 561 q 383 433 383 492 l 383 396 q 379 379 383 386 q 365 372 375 372 l 356 372 q 338 396 338 372 l 338 433 q 271 511 338 511 l 172 511 q 107 433 107 511 l 107 129 q 172 50 107 50 l 271 50 q 338 129 338 50 l 338 167 q 356 188 338 188 l 365 188 q 378 181 374 188 q 383 167 383 174 l 383 128 q 354 33 383 65 q 271 0 325 0 z "},"D":{"ha":458,"x_min":71,"x_max":386,"o":"m 274 0 l 88 0 q 71 19 71 0 l 71 540 q 88 561 71 561 l 274 561 q 356 526 326 561 q 386 433 386 492 l 386 128 q 357 33 386 65 q 274 0 328 0 m 340 433 q 274 511 340 511 l 118 511 l 118 50 l 274 50 q 340 129 340 50 l 340 433 z "},"E":{"ha":386,"x_min":69,"x_max":326,"o":"m 308 0 l 86 0 q 69 19 69 0 l 69 540 q 86 561 69 561 l 308 561 q 326 542 326 561 l 326 531 q 320 516 326 521 q 308 511 314 511 l 114 511 l 114 311 l 290 311 q 302 306 296 311 q 308 290 308 301 l 308 281 q 290 261 308 261 l 114 261 l 114 50 l 308 50 q 326 31 326 50 l 326 19 q 320 5 326 10 q 308 0 314 0 z "},"F":{"ha":369,"x_min":64,"x_max":322,"o":"m 304 511 l 110 511 l 110 303 l 285 303 q 297 298 290 303 q 303 285 303 293 l 303 275 q 297 258 303 263 q 285 254 290 254 l 110 254 l 110 19 q 106 6 110 13 q 92 0 101 0 l 82 0 q 64 19 64 0 l 64 540 q 68 555 64 549 q 82 561 72 561 l 304 561 q 322 542 322 561 l 322 531 q 316 516 322 521 q 304 511 310 511 z "},"G":{"ha":425,"x_min":57,"x_max":363,"o":"m 251 0 l 167 0 q 85 33 114 0 q 57 128 57 65 l 57 433 q 85 527 57 493 q 167 561 114 561 l 251 561 q 333 527 304 561 q 363 433 363 493 l 363 396 q 344 372 363 372 l 333 372 q 320 379 324 372 q 317 396 317 386 l 317 433 q 251 511 317 511 l 167 511 q 103 433 103 511 l 103 129 q 167 50 103 50 l 251 50 q 317 129 317 50 l 317 247 l 224 247 q 208 267 208 247 l 208 276 q 213 290 208 283 q 224 297 217 297 l 336 297 q 363 268 363 297 l 363 128 q 333 33 363 65 q 251 0 304 0 z "},"H":{"ha":453,"x_min":64,"x_max":379,"o":"m 361 0 l 351 0 q 333 19 333 0 l 333 261 l 113 261 l 113 19 q 108 6 113 13 q 93 0 103 0 l 82 0 q 64 19 64 0 l 64 540 q 82 561 64 561 l 93 561 q 108 554 104 561 q 113 540 113 547 l 113 311 l 333 311 l 333 540 q 351 561 333 561 l 361 561 q 375 554 371 561 q 379 540 379 547 l 379 19 q 375 6 379 13 q 361 0 371 0 z "},"I":{"ha":157,"x_min":54,"x_max":99,"o":"m 81 0 l 69 0 q 58 7 63 0 q 54 21 54 14 l 54 540 q 69 561 54 561 l 81 561 q 99 540 99 561 l 99 21 q 81 0 99 0 z "},"J":{"ha":394,"x_min":38,"x_max":335,"o":"m 221 0 l 147 0 q 66 33 94 0 q 38 128 38 65 l 38 194 q 42 208 38 201 q 53 214 46 214 l 64 214 q 82 194 82 214 l 82 129 q 147 50 82 50 l 221 50 q 289 129 289 50 l 289 540 q 292 554 289 547 q 306 561 296 561 l 317 561 q 335 542 335 561 l 335 128 q 305 33 335 65 q 221 0 275 0 z "},"K":{"ha":431,"x_min":60,"x_max":392,"o":"m 371 0 l 361 0 q 340 14 344 0 l 179 275 l 108 176 l 108 19 q 103 6 108 13 q 89 0 99 0 l 79 0 q 60 19 60 0 l 60 540 q 79 561 60 561 l 89 561 q 104 554 100 561 q 108 540 108 547 l 108 256 l 313 547 q 333 561 322 561 l 349 561 q 363 549 360 561 q 361 532 365 538 l 211 317 l 385 29 q 389 9 392 18 q 371 0 386 0 z "},"L":{"ha":368,"x_min":60,"x_max":326,"o":"m 310 0 l 78 0 q 60 19 60 0 l 60 540 q 64 555 60 549 q 78 561 68 561 l 88 561 q 103 554 99 561 q 107 540 107 547 l 107 51 l 310 51 q 322 45 317 51 q 326 32 326 39 l 326 19 q 322 5 326 10 q 310 0 317 0 z "},"M":{"ha":551,"x_min":64,"x_max":485,"o":"m 467 0 l 456 0 q 438 19 438 0 l 438 444 l 303 129 q 281 117 296 117 l 268 117 q 247 129 253 117 l 113 447 l 113 19 q 108 6 113 13 q 94 0 104 0 l 83 0 q 64 19 64 0 l 64 540 q 83 561 64 561 l 104 561 q 121 550 117 561 l 275 189 l 426 550 q 444 561 431 561 l 467 561 q 481 554 476 561 q 485 540 485 547 l 485 19 q 481 6 485 13 q 467 0 476 0 z "},"N":{"ha":454,"x_min":64,"x_max":389,"o":"m 371 0 l 363 0 q 343 13 351 0 l 113 447 l 113 19 q 108 6 113 13 q 93 0 103 0 l 83 0 q 64 19 64 0 l 64 540 q 83 561 64 561 l 93 561 q 107 553 107 561 l 343 117 l 343 540 q 347 554 343 547 q 360 561 350 561 l 371 561 q 385 554 381 561 q 389 540 389 547 l 389 19 q 385 6 389 13 q 371 0 381 0 z "},"O":{"ha":435,"x_min":57,"x_max":376,"o":"m 263 0 l 168 0 q 86 33 115 0 q 57 128 57 65 l 57 433 q 86 526 57 492 q 168 561 115 561 l 263 561 q 346 526 315 561 q 376 433 376 492 l 376 128 q 347 33 376 65 q 263 0 317 0 m 329 433 q 263 511 329 511 l 168 511 q 103 433 103 511 l 103 129 q 168 50 103 50 l 263 50 q 329 129 329 50 l 329 433 z "},"P":{"ha":421,"x_min":64,"x_max":363,"o":"m 251 206 l 111 206 l 111 19 q 107 6 111 13 q 93 0 103 0 l 82 0 q 64 19 64 0 l 64 540 q 82 561 64 561 l 251 561 q 333 527 304 561 q 363 433 363 493 l 363 333 q 333 240 363 275 q 251 206 304 206 m 318 433 q 251 511 318 511 l 111 511 l 111 257 l 251 257 q 301 276 283 257 q 318 335 318 294 l 318 433 z "},"Q":{"ha":453,"x_min":68,"x_max":388,"o":"m 296 -3 l 342 -87 q 344 -106 344 -94 q 329 -117 344 -117 l 317 -117 q 296 -104 306 -117 l 242 -7 l 181 -7 q 98 28 128 -7 q 68 124 68 63 l 68 435 q 98 527 68 493 q 181 561 128 561 l 275 561 q 358 527 328 561 q 388 435 388 493 l 388 124 q 296 -3 388 26 m 342 433 q 275 510 342 510 l 181 510 q 114 433 114 510 l 114 125 q 181 46 114 46 l 275 46 q 342 125 342 46 l 342 433 z "},"R":{"ha":419,"x_min":60,"x_max":369,"o":"m 354 0 l 339 0 q 321 11 325 0 l 232 225 l 108 225 l 108 19 q 88 0 108 0 l 79 0 q 66 3 72 0 q 60 19 60 7 l 60 542 q 79 561 60 561 l 246 561 q 330 528 300 561 q 360 433 360 496 l 360 353 q 341 277 360 307 q 279 228 322 247 l 367 26 q 369 10 368 21 q 354 0 369 0 m 314 433 q 246 513 314 513 l 108 513 l 108 275 l 246 275 q 314 353 314 275 l 314 433 z "},"S":{"ha":421,"x_min":51,"x_max":367,"o":"m 254 0 l 164 0 q 81 33 110 0 q 51 128 51 65 l 51 160 q 68 182 51 182 l 81 182 q 99 160 99 182 l 99 129 q 164 50 99 50 l 254 50 q 321 129 321 50 l 321 168 q 297 219 321 199 q 235 250 274 240 q 174 265 204 257 q 115 288 143 272 q 69 326 88 303 q 51 385 51 349 l 51 433 q 81 526 51 492 q 164 561 111 561 l 254 561 q 337 526 307 561 q 367 433 367 492 l 367 411 q 349 388 367 388 l 339 388 q 321 411 321 388 l 321 433 q 254 511 321 511 l 164 511 q 99 433 99 511 l 99 386 q 117 344 99 363 q 182 314 135 325 q 244 299 214 307 q 303 275 274 292 q 349 235 331 260 q 367 171 367 211 l 367 128 q 338 33 367 65 q 254 0 308 0 z "},"T":{"ha":360,"x_min":29,"x_max":332,"o":"m 314 511 l 204 511 l 204 19 q 199 6 204 13 q 185 0 194 0 l 176 0 q 163 6 167 0 q 158 19 158 13 l 158 511 l 47 511 q 35 515 40 511 q 29 531 29 519 l 29 542 q 47 561 29 561 l 314 561 q 332 542 332 561 l 332 531 q 314 511 332 511 z "},"U":{"ha":431,"x_min":61,"x_max":369,"o":"m 257 0 l 172 0 q 90 33 119 0 q 61 128 61 65 l 61 540 q 65 554 61 547 q 79 561 68 561 l 88 561 q 103 554 99 561 q 107 540 107 547 l 107 129 q 172 50 107 50 l 257 50 q 322 129 322 50 l 322 540 q 340 561 322 561 l 351 561 q 369 542 369 561 l 369 128 q 340 33 369 65 q 257 0 310 0 z "},"V":{"ha":419,"x_min":31,"x_max":388,"o":"m 238 17 q 231 5 235 10 q 219 0 226 0 l 200 0 q 183 11 188 0 q 183 15 183 14 q 182 17 182 15 l 33 539 q 34 553 31 546 q 49 561 38 561 l 61 561 q 72 556 69 561 q 78 544 75 551 l 210 92 l 339 542 l 343 550 l 343 553 l 344 554 l 347 557 q 357 561 350 561 l 371 561 q 385 553 382 561 q 385 539 388 546 l 238 17 z "},"W":{"ha":675,"x_min":35,"x_max":643,"o":"m 525 18 q 504 0 521 0 l 483 0 q 461 17 467 0 l 340 468 l 219 17 q 212 5 217 10 q 199 0 207 0 l 178 0 q 162 3 167 0 q 154 18 157 7 l 38 536 q 42 555 35 549 q 58 561 49 561 l 68 561 q 90 542 83 561 l 189 93 l 310 544 q 319 556 314 551 q 332 561 324 561 l 347 561 q 360 556 356 561 q 368 544 365 551 l 490 92 l 590 543 q 597 556 593 550 q 613 561 601 561 l 624 561 q 641 553 639 561 q 640 539 643 546 l 525 18 z "},"X":{"ha":413,"x_min":31,"x_max":379,"o":"m 364 0 l 351 0 q 343 2 349 0 q 331 11 338 4 l 207 253 l 83 11 q 71 2 76 4 q 63 0 65 0 l 50 0 q 35 9 39 0 q 38 29 31 18 l 178 296 l 46 532 q 42 553 40 544 q 60 561 44 561 l 71 561 q 93 546 85 561 l 207 340 l 322 546 q 331 557 328 554 q 342 561 335 561 l 354 561 q 371 553 368 561 q 367 532 374 544 l 236 296 l 379 26 l 379 19 q 364 0 379 0 z "},"Y":{"ha":411,"x_min":29,"x_max":381,"o":"m 229 215 l 229 19 q 210 0 229 0 l 200 0 q 187 6 190 0 q 183 19 183 13 l 183 215 l 33 533 q 31 551 29 542 q 47 561 33 561 l 61 561 q 78 551 71 561 l 82 546 l 206 275 l 331 547 q 338 556 333 553 q 342 560 340 558 q 351 561 344 561 l 363 561 q 378 553 376 561 q 378 535 381 544 l 229 215 z "},"Z":{"ha":388,"x_min":33,"x_max":351,"o":"m 332 0 l 50 0 q 39 5 44 0 q 33 19 33 10 l 33 35 q 33 41 33 38 q 36 49 33 44 l 286 511 l 58 511 q 46 515 51 511 q 40 531 40 519 l 40 542 q 58 561 40 561 l 324 561 q 343 542 343 561 l 343 526 q 342 524 343 525 q 342 519 342 522 l 340 511 l 89 50 l 332 50 q 345 45 339 50 q 351 31 351 40 l 351 19 q 345 3 351 7 q 332 0 339 0 z "},"[":{"ha":213,"x_min":56,"x_max":156,"o":"m 150 -92 q 142 -96 146 -96 l 68 -96 q 56 -76 56 -96 l 56 582 q 68 604 56 604 l 142 604 q 151 599 147 604 q 156 583 156 594 l 156 575 q 150 560 156 565 q 142 554 146 554 l 88 554 l 88 -47 l 142 -47 q 150 -50 147 -47 l 151 -51 q 156 -68 156 -62 l 156 -78 q 150 -92 156 -83 z "},"\\":{"ha":306,"x_min":40,"x_max":263,"o":"m 258 -31 q 244 -39 256 -39 l 238 -39 q 231 -37 233 -39 q 226 -35 229 -36 l 222 -29 q 218 -24 219 -26 l 43 585 q 43 606 40 590 q 47 610 44 608 q 56 613 49 613 l 67 613 q 83 597 78 613 l 260 -12 q 258 -31 263 -24 z "},"]":{"ha":214,"x_min":53,"x_max":153,"o":"m 147 -92 q 145 -95 146 -94 q 140 -96 144 -96 l 67 -96 q 57 -92 61 -96 q 53 -78 53 -87 l 53 -68 q 56 -53 53 -57 q 67 -47 64 -47 l 119 -47 l 119 554 l 67 554 q 57 560 63 554 q 53 575 53 564 l 53 583 q 57 599 53 594 q 67 604 61 604 l 140 604 q 149 599 147 604 q 153 582 153 586 l 153 -76 q 147 -92 153 -82 z "},"^":{"ha":403,"x_min":49,"x_max":338,"o":"m 318 308 l 310 308 q 303 311 306 308 q 292 319 296 318 l 192 536 l 93 318 q 74 308 83 308 l 68 308 q 53 315 57 308 q 53 333 49 324 l 160 568 q 167 577 164 574 q 172 583 169 581 q 177 584 175 583 q 183 585 179 585 l 200 585 q 215 581 204 585 q 224 571 221 578 l 332 333 q 333 318 338 322 q 318 308 329 308 z "},"_":{"ha":313,"x_min":38,"x_max":278,"o":"m 38 -85 l 38 -47 l 42 -43 q 47 -40 44 -40 q 54 -40 49 -40 l 260 -40 q 272 -44 269 -40 l 278 -47 l 278 -87 l 278 -85 q 271 -90 275 -87 q 267 -94 269 -94 q 260 -94 264 -94 l 54 -94 q 47 -94 50 -94 q 43 -90 44 -94 l 38 -85 z "},"`":{"ha":193,"x_min":56,"x_max":140,"o":"m 126 483 l 122 483 q 110 493 115 483 l 63 568 q 60 586 56 579 q 69 593 64 593 l 83 593 q 97 583 93 593 l 135 506 q 137 489 140 494 q 126 483 133 483 z "},"a":{"ha":354,"x_min":44,"x_max":300,"o":"m 283 0 l 275 0 q 257 18 265 0 q 194 0 219 0 l 144 0 q 71 31 97 0 q 44 114 44 61 l 44 294 q 71 378 44 347 q 144 408 97 408 l 283 408 q 300 392 300 408 l 300 18 q 283 0 300 0 m 263 325 q 260 342 263 331 q 250 357 257 351 q 228 365 243 363 l 144 365 q 83 294 83 365 l 83 115 q 144 43 83 43 l 193 43 q 261 111 261 43 q 262 249 261 206 q 263 307 263 292 l 263 325 z "},"b":{"ha":364,"x_min":53,"x_max":308,"o":"m 207 0 l 67 0 q 56 6 60 0 q 53 18 53 11 l 53 544 q 67 563 53 563 l 76 563 q 92 544 92 563 l 92 401 q 128 419 115 415 q 157 424 142 424 l 207 424 q 281 392 253 424 q 308 306 308 360 l 308 117 q 281 30 308 60 q 207 0 253 0 m 268 304 q 207 378 268 378 l 157 378 q 92 308 92 378 l 92 46 l 207 46 q 268 118 268 46 l 268 304 z "},"c":{"ha":289,"x_min":44,"x_max":249,"o":"m 233 0 l 142 0 q 71 31 97 0 q 44 114 44 61 l 44 294 q 71 378 44 347 q 142 408 97 408 l 233 408 q 249 392 249 408 l 249 382 q 244 369 249 374 q 233 365 239 365 l 142 365 q 83 294 83 365 l 83 115 q 142 43 83 43 l 233 43 q 249 26 249 43 l 249 17 q 244 3 249 7 q 233 0 239 0 z "},"d":{"ha":363,"x_min":44,"x_max":300,"o":"m 283 0 l 275 0 q 265 3 268 0 q 257 19 263 6 q 224 4 238 8 q 194 0 210 0 l 144 0 q 71 29 97 0 q 44 117 44 58 l 44 299 q 71 385 44 356 q 144 415 97 415 l 194 415 q 224 411 210 415 q 261 393 238 407 l 261 544 q 275 563 261 563 l 283 563 q 300 544 300 563 l 300 18 q 283 0 300 0 m 261 301 q 193 371 261 371 l 144 371 q 83 299 83 371 l 83 118 q 144 46 83 46 l 193 46 q 261 113 261 46 l 261 301 z "},"e":{"ha":356,"x_min":44,"x_max":306,"o":"m 290 179 l 83 179 l 83 115 q 144 43 83 43 l 285 43 q 301 26 301 43 l 301 17 q 296 4 301 8 q 285 0 290 0 l 144 0 q 71 31 97 0 q 44 114 44 61 l 44 294 q 71 378 44 347 q 144 408 97 408 l 204 408 q 279 378 253 408 q 306 294 306 347 l 306 199 q 290 179 306 179 m 267 294 q 204 365 267 365 l 144 365 q 83 294 83 365 l 83 222 l 267 222 l 267 294 z "},"f":{"ha":239,"x_min":39,"x_max":199,"o":"m 183 371 l 129 371 l 129 18 q 125 6 129 11 q 115 0 121 0 l 107 0 q 94 18 94 0 l 94 371 l 53 371 q 39 388 39 371 l 39 397 q 53 415 39 415 l 94 415 l 94 449 q 115 535 94 508 q 174 563 135 563 l 183 563 q 194 559 189 563 q 199 546 199 556 l 199 538 q 194 521 199 525 q 183 517 190 517 l 174 517 q 140 501 150 517 q 129 447 129 485 l 129 415 l 183 415 q 199 397 199 415 l 199 388 q 194 376 199 381 q 183 371 189 371 z "},"g":{"ha":357,"x_min":49,"x_max":304,"o":"m 203 -107 l 81 -107 q 70 -103 75 -107 q 65 -89 65 -99 l 65 -79 q 81 -62 65 -62 l 203 -62 q 264 11 264 -62 l 264 36 q 226 22 242 25 q 199 18 211 18 l 149 18 q 76 47 103 18 q 49 135 49 76 l 49 292 q 76 379 49 350 q 149 408 103 408 l 289 408 q 300 403 296 408 q 304 392 304 399 l 304 10 q 276 -78 304 -49 q 203 -107 249 -107 m 146 363 q 101 345 114 363 q 89 292 89 328 l 89 135 q 149 63 89 63 l 199 63 q 263 132 263 63 l 267 364 l 146 363 z "},"h":{"ha":363,"x_min":53,"x_max":308,"o":"m 292 0 l 282 0 q 268 18 268 0 l 268 299 q 207 371 268 371 l 157 371 q 92 301 92 371 l 92 18 q 76 0 92 0 l 67 0 q 56 6 60 0 q 53 18 53 11 l 53 544 q 67 563 53 563 l 76 563 q 92 544 92 563 l 92 397 q 128 412 113 408 q 157 415 144 415 l 207 415 q 281 385 253 415 q 308 299 308 356 l 308 18 q 292 0 308 0 z "},"i":{"ha":147,"x_min":47,"x_max":92,"o":"m 89 461 l 50 461 q 49 468 47 461 q 51 481 51 475 l 51 543 q 49 556 51 550 q 50 561 47 561 l 89 561 q 91 556 92 561 q 90 543 90 550 l 90 481 q 91 468 90 475 q 89 461 92 461 m 89 0 l 50 0 q 49 6 47 0 q 51 18 51 13 l 51 397 q 49 410 51 404 q 50 415 47 415 l 89 415 q 91 410 92 415 q 90 397 90 404 l 90 18 q 91 6 90 13 q 89 0 92 0 z "},"j":{"ha":140,"x_min":-25,"x_max":90,"o":"m 78 465 l 63 465 q 51 482 51 465 l 51 543 q 63 561 51 561 l 78 561 q 86 556 82 561 q 90 543 90 550 l 90 482 q 86 470 90 475 q 78 465 82 465 m -1 -107 l -12 -107 q -21 -103 -17 -107 q -25 -89 -25 -100 l -25 -81 q -21 -67 -25 -72 q -12 -61 -17 -61 l -1 -61 q 39 -42 26 -61 q 51 11 51 -22 l 51 394 q 63 414 51 414 l 78 414 q 86 408 82 414 q 90 394 90 403 l 90 10 q 67 -76 90 -44 q -1 -107 44 -107 z "},"k":{"ha":319,"x_min":53,"x_max":296,"o":"m 278 0 l 267 0 q 246 11 251 0 l 129 203 q 129 226 121 214 l 233 404 q 244 413 236 410 q 254 415 251 415 l 263 415 q 275 407 272 415 q 274 392 278 399 l 171 214 l 289 24 q 292 7 296 14 q 278 0 289 0 m 76 0 l 67 0 q 56 6 60 0 q 53 18 53 11 l 53 544 q 67 563 53 563 l 76 563 q 92 544 92 563 l 92 18 q 76 0 92 0 z "},"l":{"ha":157,"x_min":53,"x_max":93,"o":"m 76 0 l 67 0 q 56 6 60 0 q 53 18 53 11 l 53 544 q 67 563 53 563 l 76 563 q 93 544 93 563 l 93 18 q 76 0 93 0 z "},"m":{"ha":569,"x_min":53,"x_max":515,"o":"m 497 0 l 488 0 q 476 6 479 0 q 472 18 472 11 l 472 294 q 406 365 472 365 l 378 365 q 324 347 343 365 q 304 294 304 328 l 304 18 q 300 6 304 11 q 289 0 296 0 l 278 0 q 263 18 263 0 l 263 294 q 196 365 263 365 l 165 365 q 96 297 96 365 l 96 18 q 78 0 96 0 l 68 0 q 56 6 60 0 q 53 18 53 11 l 53 392 q 56 403 53 399 q 68 408 60 408 l 78 408 q 88 406 83 408 q 100 392 93 403 q 133 405 118 401 q 164 408 149 408 l 196 408 q 285 368 246 408 q 331 400 308 392 q 378 408 354 408 l 406 408 q 485 378 456 408 q 515 294 515 347 l 515 18 q 497 0 515 0 z "},"n":{"ha":360,"x_min":53,"x_max":308,"o":"m 292 0 l 282 0 q 268 18 268 0 l 268 294 q 207 365 268 365 l 157 365 q 92 297 92 365 l 92 18 q 76 0 92 0 l 67 0 q 53 18 53 0 l 53 392 q 56 403 53 399 q 67 408 60 408 l 76 408 q 84 405 81 408 q 94 390 88 401 q 157 408 126 408 l 207 408 q 281 378 253 408 q 308 294 308 347 l 308 18 q 292 0 308 0 z "},"o":{"ha":357,"x_min":44,"x_max":304,"o":"m 203 0 l 144 0 q 71 31 97 0 q 44 114 44 61 l 44 294 q 71 378 44 347 q 144 408 97 408 l 203 408 q 276 378 249 408 q 304 294 304 347 l 304 114 q 276 31 304 61 q 203 0 249 0 m 264 294 q 203 365 264 365 l 144 365 q 83 294 83 365 l 83 115 q 144 43 83 43 l 203 43 q 264 115 264 43 l 264 294 z "},"p":{"ha":371,"x_min":63,"x_max":318,"o":"m 217 -6 l 167 -6 q 138 -1 151 -6 q 101 17 125 3 l 101 -106 q 97 -118 101 -112 q 86 -124 93 -124 l 76 -124 q 66 -118 69 -124 q 63 -106 63 -112 l 63 392 q 66 403 63 399 q 76 408 69 408 l 86 408 q 94 405 90 408 q 104 390 97 401 q 167 408 139 408 l 217 408 q 290 379 263 408 q 318 293 318 350 l 318 110 q 290 23 318 51 q 217 -6 263 -6 m 278 293 q 217 364 278 364 l 167 364 q 101 297 101 364 l 101 107 q 167 40 101 40 l 217 40 q 278 111 278 40 l 278 293 z "},"q":{"ha":363,"x_min":53,"x_max":308,"o":"m 292 -124 l 282 -124 q 269 -106 269 -124 l 269 14 q 247 3 256 7 q 232 -3 239 -1 q 218 -6 225 -6 q 200 -6 211 -6 l 153 -6 q 79 23 106 -6 q 53 110 53 51 l 53 293 q 79 379 53 350 q 153 408 106 408 l 292 408 q 308 392 308 408 l 308 -106 q 304 -118 308 -112 q 292 -124 300 -124 m 269 342 q 238 361 260 364 l 153 361 q 92 293 92 361 l 92 111 q 153 40 92 40 l 200 40 q 269 111 269 40 l 269 342 z "},"r":{"ha":208,"x_min":40,"x_max":171,"o":"m 157 365 l 132 365 q 89 344 104 365 q 74 288 74 322 l 74 18 q 60 0 74 0 l 51 0 q 40 18 40 0 l 40 392 q 51 408 40 408 l 60 408 q 68 406 65 408 q 76 389 71 403 q 106 403 94 399 q 133 408 118 408 l 157 408 q 167 403 163 408 q 171 392 171 399 l 171 382 q 157 365 171 365 z "},"s":{"ha":311,"x_min":43,"x_max":272,"o":"m 175 0 l 61 0 q 47 17 47 0 l 47 26 q 61 43 47 43 l 175 43 q 221 57 207 43 q 235 94 235 71 l 235 115 q 228 155 235 142 q 199 178 221 168 l 111 211 q 57 249 71 226 q 43 313 43 272 q 135 408 43 408 l 242 408 q 253 403 249 408 q 257 392 257 399 l 257 382 q 242 365 257 365 l 135 365 q 94 352 104 365 q 83 324 83 339 l 83 303 q 91 274 83 283 q 122 254 99 264 l 210 218 q 259 174 246 203 q 272 99 272 146 q 248 23 272 46 q 175 0 224 0 z "},"t":{"ha":257,"x_min":31,"x_max":224,"o":"m 208 0 l 185 0 q 111 31 139 0 q 83 114 83 61 l 83 368 l 44 368 q 31 385 31 368 l 31 394 q 44 413 31 413 l 83 413 l 83 467 q 88 480 83 474 q 99 486 92 486 l 108 486 q 119 480 115 486 q 122 467 122 474 l 122 413 l 201 413 q 217 394 217 413 l 217 385 q 212 372 217 375 q 201 368 207 368 l 122 368 l 122 114 q 185 44 122 44 l 208 44 q 224 28 224 44 l 224 17 q 219 3 224 7 q 208 0 214 0 z "},"u":{"ha":353,"x_min":50,"x_max":306,"o":"m 290 0 l 282 0 q 264 18 272 0 q 231 4 246 8 q 200 0 217 0 l 151 0 q 78 31 106 0 q 50 114 50 61 l 50 392 q 65 408 50 408 l 76 408 q 88 403 83 408 q 92 392 92 399 l 92 115 q 151 43 92 43 l 200 43 q 267 111 267 43 l 267 392 q 282 408 267 408 l 290 408 q 301 403 297 408 q 306 392 306 399 l 306 18 q 290 0 306 0 z "},"v":{"ha":335,"x_min":29,"x_max":301,"o":"m 189 14 q 174 0 183 0 l 157 0 q 147 5 150 0 q 142 13 143 10 l 33 386 q 47 408 29 408 l 58 408 q 69 404 65 408 q 74 397 72 400 l 165 68 q 199 192 183 138 q 228 290 215 246 l 260 397 q 263 403 260 399 q 272 408 265 408 l 283 408 q 297 386 301 408 l 189 14 z "},"w":{"ha":539,"x_min":24,"x_max":513,"o":"m 401 15 q 383 0 396 0 l 367 0 q 349 14 353 0 l 267 317 l 185 13 q 167 0 178 0 l 151 0 q 133 15 139 0 l 24 386 q 39 408 24 408 l 50 408 q 67 393 61 408 l 158 78 l 244 394 q 263 408 249 408 l 274 408 q 285 405 282 408 q 290 394 288 401 l 375 78 l 465 394 q 472 404 468 400 q 483 408 476 408 l 496 408 q 508 401 504 408 q 510 389 513 394 l 401 15 z "},"x":{"ha":313,"x_min":25,"x_max":283,"o":"m 269 0 l 254 0 q 240 13 247 0 l 156 174 l 71 11 q 64 3 68 7 q 53 0 60 0 l 40 0 q 27 3 29 0 q 28 17 25 6 q 32 25 31 24 l 129 208 l 36 388 q 34 399 32 390 q 47 408 36 408 l 61 408 q 70 404 67 408 q 76 397 74 400 l 156 244 l 233 396 q 239 406 236 403 q 250 408 242 408 l 263 408 q 274 399 275 408 q 271 385 274 389 l 181 208 l 281 25 q 283 10 283 21 q 269 0 283 0 z "},"y":{"ha":356,"x_min":29,"x_max":322,"o":"m 206 29 q 186 -27 194 -6 q 171 -60 178 -49 q 79 -118 139 -118 l 61 -118 q 43 -100 43 -118 l 43 -92 q 61 -74 43 -74 l 79 -74 q 132 -46 115 -74 q 158 14 149 -18 q 97 195 129 97 q 32 388 64 293 q 33 401 29 394 q 44 408 36 408 l 56 408 q 69 400 65 408 q 72 393 71 393 l 176 75 l 246 288 l 281 394 q 299 408 286 408 l 308 408 q 321 400 319 408 q 322 385 322 392 l 206 29 z "},"z":{"ha":301,"x_min":33,"x_max":269,"o":"m 254 0 l 50 0 q 38 3 43 0 q 33 17 33 7 l 33 25 q 38 36 33 31 l 214 365 l 53 365 q 39 382 39 365 l 39 392 q 42 403 39 399 q 53 408 46 408 l 250 408 q 260 405 256 408 q 265 392 265 401 l 265 382 q 263 372 265 378 l 85 43 l 254 43 q 265 38 261 43 q 269 26 269 33 l 269 17 q 254 0 269 0 z "},"{":{"ha":229,"x_min":42,"x_max":181,"o":"m 175 -90 q 165 -96 169 -96 l 163 -96 q 107 -64 121 -96 q 89 25 89 -26 l 89 176 q 81 219 89 208 q 56 231 69 232 q 46 236 49 232 q 42 249 42 238 l 42 258 q 44 274 42 271 q 56 278 49 278 q 79 288 69 278 q 89 332 89 297 l 89 482 q 89 504 89 492 q 92 532 89 517 q 98 551 94 543 q 107 569 101 558 q 115 581 110 574 q 129 596 121 588 q 144 601 136 599 q 163 604 151 604 l 165 604 q 174 601 171 604 l 175 600 q 181 583 181 593 l 181 575 q 175 560 181 565 q 165 554 167 554 l 163 554 q 135 540 143 554 q 126 517 128 533 q 125 481 125 501 l 125 332 q 124 315 125 325 q 121 290 122 304 q 106 254 118 275 q 116 234 113 243 q 121 218 119 225 q 122 200 122 207 q 124 188 122 193 q 125 176 124 179 l 125 25 q 126 -8 125 6 q 135 -32 128 -22 q 147 -44 139 -42 q 163 -47 154 -47 l 165 -47 q 175 -51 171 -47 q 181 -68 181 -58 l 181 -78 q 175 -90 181 -85 z "},"|":{"ha":153,"x_min":54,"x_max":96,"o":"m 79 0 l 69 0 q 58 6 61 0 q 55 15 56 13 q 54 19 54 18 l 54 564 q 54 570 54 567 q 57 579 54 574 q 69 585 63 585 l 79 585 q 92 581 88 585 q 96 564 96 576 l 96 19 q 79 0 96 0 z "},"}":{"ha":229,"x_min":39,"x_max":178,"o":"m 172 236 q 163 231 168 232 q 138 219 149 232 q 132 203 133 214 q 131 176 131 192 l 131 25 q 111 -64 131 -22 q 56 -96 97 -96 l 53 -96 q 43 -90 49 -96 q 39 -78 39 -86 l 39 -68 q 40 -60 39 -65 q 43 -51 40 -56 q 53 -47 47 -47 l 56 -47 q 85 -32 75 -47 q 94 25 94 -18 l 94 178 q 94 189 94 179 q 97 218 94 199 q 102 234 99 225 q 115 254 106 243 q 102 275 106 267 q 97 290 99 283 q 95 315 96 304 q 94 332 94 325 l 94 481 q 83 542 94 526 q 56 554 71 554 l 53 554 q 43 560 51 554 q 39 575 39 564 l 39 583 q 43 600 39 594 l 44 601 q 53 604 47 604 l 56 604 q 74 601 67 604 q 89 596 82 599 q 103 581 99 588 q 111 569 108 574 q 120 551 117 558 q 126 532 124 543 q 131 482 131 500 l 131 332 q 132 305 131 317 q 139 288 133 293 q 163 278 149 278 q 174 274 169 278 q 178 258 178 269 l 178 249 q 172 236 178 239 z "},"~":{"ha":432,"x_min":71,"x_max":361,"o":"m 288 238 q 211 246 258 238 q 173 251 188 250 q 150 253 158 253 q 142 252 147 253 q 129 250 136 251 q 90 242 114 246 q 78 244 85 242 q 71 254 71 246 l 71 275 q 93 290 71 282 q 144 297 115 297 q 178 296 158 297 q 221 290 197 294 q 282 282 267 282 q 290 283 285 282 q 304 285 296 283 l 342 293 q 354 292 347 293 q 361 281 361 292 l 361 260 q 339 244 361 250 q 288 238 317 238 z "},"¢":{"ha":344,"x_min":71,"x_max":306,"o":"m 288 -3 l 235 -3 l 235 -56 q 230 -69 235 -62 q 219 -75 225 -75 l 208 -75 q 197 -69 201 -75 q 193 -56 193 -62 l 193 -3 l 175 -3 q 99 29 126 -3 q 71 119 71 61 l 71 310 q 99 403 71 372 q 175 435 126 435 l 193 435 l 193 499 q 208 518 193 518 l 219 518 q 230 513 225 518 q 235 499 235 508 l 235 435 l 288 435 q 306 414 306 435 l 306 404 q 300 390 306 394 q 288 386 294 386 l 175 386 q 113 310 113 386 l 113 121 q 175 46 113 46 l 288 46 q 306 24 306 46 l 306 15 q 299 2 306 7 q 288 -3 293 -3 z "},"©":{"ha":613,"x_min":75,"x_max":540,"o":"m 425 0 l 189 0 q 106 33 136 0 q 75 124 75 65 l 75 419 q 106 510 75 476 q 189 543 136 543 l 425 543 q 508 510 475 543 q 540 419 540 476 l 540 124 q 508 33 540 65 q 425 0 475 0 m 493 418 q 425 494 493 494 l 189 494 q 122 418 122 494 l 122 125 q 189 49 122 49 l 425 49 q 493 125 493 49 l 493 418 m 392 121 q 313 94 364 94 l 296 94 q 217 121 244 94 q 190 200 190 143 l 190 335 q 217 417 190 393 q 296 440 243 440 l 313 440 q 392 417 365 440 q 419 335 419 392 l 419 331 q 400 310 419 310 l 390 310 q 378 315 381 310 q 374 324 375 321 q 374 331 374 328 l 374 335 q 360 381 374 367 q 313 394 347 394 l 296 394 q 249 381 261 394 q 240 362 242 374 q 238 335 238 350 l 238 201 q 249 153 238 165 q 296 140 261 140 l 313 140 q 360 156 347 140 q 370 174 367 163 q 374 201 374 185 l 374 203 q 374 209 374 206 q 378 218 375 213 q 381 221 379 219 q 390 222 383 222 l 400 222 q 419 203 419 222 l 419 200 q 392 121 419 144 z "},"®":{"ha":621,"x_min":75,"x_max":540,"o":"m 425 0 l 189 0 q 106 33 136 0 q 75 124 75 65 l 75 419 q 106 510 75 476 q 189 543 136 543 l 425 543 q 508 510 475 543 q 540 419 540 476 l 540 124 q 508 33 540 65 q 425 0 475 0 m 493 418 q 425 494 493 494 l 189 494 q 122 418 122 494 l 122 125 q 189 49 122 49 l 425 49 q 493 125 493 49 l 493 418 m 435 111 l 435 110 l 435 114 q 422 106 431 106 l 403 106 q 393 107 396 106 l 392 108 q 390 110 390 110 q 388 111 389 110 l 386 114 l 306 233 l 231 233 l 231 118 q 225 110 231 113 q 214 106 221 106 l 201 106 q 190 108 194 106 q 188 118 188 111 l 188 421 q 189 431 188 429 l 200 433 l 204 433 l 206 435 l 325 435 q 397 411 381 435 q 419 374 413 392 q 425 339 425 356 l 425 332 q 408 274 425 297 q 351 235 390 250 l 432 119 q 433 117 432 117 q 433 114 433 117 l 435 111 m 382 338 q 324 400 382 400 l 231 400 l 231 271 l 324 271 q 382 332 382 271 l 382 338 z "},"¼":{"ha":719,"x_min":63,"x_max":713,"o":"m 663 75 l 663 -11 l 629 -11 l 629 75 l 464 75 l 464 104 l 625 329 l 663 329 l 663 104 l 713 104 l 713 75 l 663 75 m 199 -29 l 154 -29 l 543 614 l 586 614 l 199 -29 m 157 256 l 157 535 q 137 525 150 528 q 109 520 124 522 q 83 518 94 518 q 67 518 71 518 l 63 518 l 63 538 q 128 551 106 538 q 160 606 151 564 l 192 606 l 192 256 l 157 256 m 629 289 l 496 104 l 629 104 l 629 289 z "},"½":{"ha":719,"x_min":63,"x_max":708,"o":"m 463 -11 l 463 -1 q 483 67 463 38 q 554 125 504 96 l 589 144 q 626 165 611 157 q 640 174 633 171 q 650 182 646 178 q 667 208 661 197 q 674 236 674 219 q 593 311 674 311 q 506 225 514 311 l 471 225 q 506 313 476 288 q 594 339 536 339 q 678 311 647 339 q 708 236 708 283 q 678 165 708 199 q 653 147 671 158 q 607 121 635 136 q 577 104 594 114 q 543 83 560 94 q 514 56 528 71 q 496 17 500 40 l 708 17 l 708 -11 l 463 -11 m 199 -29 l 154 -29 l 543 614 l 586 614 l 199 -29 m 157 256 l 157 535 q 137 525 150 528 q 109 520 124 522 q 83 518 94 518 q 67 518 71 518 l 63 518 l 63 538 q 128 551 106 538 q 160 606 151 564 l 192 606 l 192 256 l 157 256 z "},"¾":{"ha":719,"x_min":31,"x_max":713,"o":"m 663 75 l 663 -11 l 629 -11 l 629 75 l 464 75 l 464 104 l 624 329 l 663 329 l 663 104 l 713 104 l 713 75 l 663 75 m 199 -29 l 154 -29 l 543 614 l 588 614 l 199 -29 m 151 247 q 61 276 92 247 q 31 357 31 306 l 67 357 q 92 293 71 313 q 151 274 114 274 q 239 351 239 274 q 213 407 239 389 q 142 425 188 425 l 132 425 l 128 424 l 128 450 l 140 450 q 206 466 182 450 q 229 517 229 482 q 208 563 229 546 q 156 579 186 579 q 100 563 121 579 q 76 501 79 546 l 42 501 q 77 581 49 557 q 156 606 106 606 q 235 581 207 606 q 263 517 263 557 q 260 488 263 499 q 253 469 257 476 q 242 457 249 463 q 229 444 236 451 q 238 438 235 440 q 244 431 242 435 q 276 351 276 400 q 244 276 276 304 q 151 247 213 247 m 629 289 l 496 104 l 629 104 l 629 289 z "},"×":{"ha":494,"x_min":46,"x_max":444,"o":"m 439 74 l 428 63 q 413 54 421 54 l 244 232 l 86 63 q 75 57 82 58 l 74 57 q 63 61 67 56 q 53 72 60 64 q 47 85 46 81 q 53 99 49 94 l 211 267 l 53 435 q 47 449 49 439 l 47 451 l 49 456 l 53 461 l 64 472 q 75 476 68 478 l 76 476 q 88 471 83 476 l 246 303 l 403 469 q 428 469 414 481 q 433 465 431 467 q 439 460 436 463 q 442 456 440 457 q 444 451 444 454 q 444 447 444 447 q 438 435 443 440 l 279 268 l 439 100 q 444 85 443 96 q 444 81 444 83 q 439 74 443 79 z "},"÷":{"ha":490,"x_min":11,"x_max":436,"o":"m 211 399 l 211 433 l 249 433 l 249 399 l 211 399 m 11 226 l 11 267 l 436 267 l 436 226 l 11 226 m 214 39 l 214 75 l 253 75 l 253 39 l 214 39 z "},"ॐ":{"ha":789,"x_min":64,"x_max":694,"o":"m 544 579 l 528 579 q 515 584 518 579 q 513 596 513 589 l 513 621 q 528 640 513 640 l 544 640 q 563 621 563 640 l 563 596 q 544 579 563 579 m 563 474 l 508 474 q 394 593 394 474 l 394 599 q 411 617 394 617 l 424 617 q 440 599 440 617 l 440 593 q 452 535 440 551 q 508 518 464 518 l 563 518 q 619 535 607 518 q 632 593 632 551 l 632 599 q 637 613 632 608 q 649 617 642 617 l 661 617 q 678 599 678 617 l 678 593 q 563 474 678 474 m 575 38 l 563 38 q 444 157 444 38 l 444 239 l 349 239 l 349 172 q 315 74 349 110 q 222 38 281 38 l 190 38 q 98 72 132 38 q 64 172 64 106 l 64 207 q 79 226 64 226 l 92 226 q 110 207 110 226 l 110 174 q 190 83 110 83 l 222 83 q 304 174 304 83 l 304 214 q 222 299 304 299 l 163 299 q 147 318 147 299 l 147 329 q 163 346 147 346 l 222 346 q 304 431 304 346 l 304 456 q 222 542 304 542 l 139 542 q 122 558 122 542 l 122 568 q 139 585 122 585 l 222 585 q 315 552 282 585 q 349 456 349 519 l 349 429 q 299 324 349 364 q 319 304 313 311 q 335 283 326 297 l 446 283 q 489 238 489 283 l 489 158 q 504 99 489 114 q 563 83 519 83 l 575 83 q 632 99 615 83 q 649 158 649 114 l 649 299 q 631 363 649 343 q 576 382 613 382 l 474 382 q 457 401 457 382 l 457 411 q 474 428 457 428 l 575 428 q 663 397 631 428 q 694 299 694 365 l 694 157 q 575 38 694 38 z "},"॑":{"ha":0,"x_min":-299,"x_max":-254,"o":"m -299 926 l -299 1417 l -254 1417 l -254 926 l -299 926 z "},"॒":{"ha":0,"x_min":-692,"x_max":-78,"o":"m -692 -503 l -692 -439 l -78 -439 l -78 -503 l -692 -503 z "},"।":{"ha":151,"x_min":13,"x_max":60,"o":"m 13 0 l 13 418 l 60 418 l 60 0 l 13 0 z "},"॥":{"ha":364,"x_min":54,"x_max":254,"o":"m 207 0 l 207 418 l 254 418 l 254 0 l 207 0 m 54 0 l 54 418 l 101 418 l 101 0 l 54 0 z "},"ఁ":{"ha":297,"x_min":13,"x_max":214,"o":"m 85 0 q 35 22 57 0 q 13 85 13 44 l 13 372 q 35 432 13 408 q 85 456 57 456 l 214 456 l 214 410 l 89 410 q 54 372 54 410 l 54 85 q 89 46 54 46 l 214 46 l 214 0 l 85 0 z "},"ం":{"ha":435,"x_min":19,"x_max":356,"o":"m 283 0 l 93 0 q 42 23 65 0 q 19 85 19 46 l 19 372 q 42 432 19 408 q 93 456 65 456 l 281 456 q 332 432 308 456 q 356 372 356 408 l 356 85 q 347 43 356 60 q 326 17 338 26 q 301 3 314 7 q 283 0 289 0 m 313 372 q 302 401 313 392 q 278 410 292 410 l 97 410 q 63 372 63 410 l 63 85 q 97 46 63 46 l 278 46 q 303 56 293 46 q 313 85 313 65 l 313 372 z "},"ః":{"ha":307,"x_min":13,"x_max":214,"o":"m 139 263 l 85 263 q 35 286 57 263 q 13 346 13 310 l 13 372 q 35 432 13 408 q 85 456 57 456 l 139 456 q 191 432 168 456 q 214 372 214 408 l 214 346 q 191 286 214 310 q 139 263 168 263 m 139 0 l 85 0 q 35 22 57 0 q 13 85 13 44 l 13 108 q 35 167 13 144 q 85 190 57 190 l 139 190 q 191 167 168 190 q 214 108 214 144 l 214 85 q 191 22 214 44 q 139 0 168 0 m 172 372 q 136 410 172 410 l 89 410 q 54 372 54 410 l 54 346 q 89 308 54 308 l 136 308 q 172 346 172 308 l 172 372 m 172 108 q 136 146 172 146 l 89 146 q 54 108 54 146 l 54 85 q 89 46 54 46 l 136 46 q 172 85 172 46 l 172 108 z "},"అ":{"ha":533,"x_min":13,"x_max":460,"o":"m 383 0 l 88 0 q 35 23 58 0 q 13 85 13 46 l 13 371 q 35 433 13 410 q 88 456 58 456 l 131 456 q 183 433 158 456 q 207 371 207 410 l 207 328 q 183 265 207 288 q 131 243 158 243 l 56 243 l 56 85 q 66 56 56 65 q 90 46 76 46 l 381 46 q 406 56 394 46 q 417 85 417 65 l 417 372 q 381 410 417 410 l 343 410 q 319 401 329 410 q 308 372 308 392 l 308 217 q 297 170 308 194 q 256 146 285 146 l 110 146 l 110 192 l 219 192 q 257 208 249 192 q 265 240 265 224 l 265 371 q 289 433 265 410 q 340 456 313 456 l 383 456 q 436 433 413 456 q 460 371 460 410 l 460 85 q 436 23 460 46 q 383 0 413 0 m 163 372 q 128 410 163 410 l 90 410 q 56 372 56 410 l 56 289 l 128 289 q 163 326 163 289 l 163 372 z "},"ఆ":{"ha":521,"x_min":13,"x_max":443,"o":"m 367 0 l 88 0 q 35 23 58 0 q 13 85 13 46 l 13 371 q 35 433 13 410 q 88 456 58 456 l 131 456 q 183 433 158 456 q 207 371 207 410 l 207 328 q 183 265 207 288 q 131 243 158 243 l 56 243 l 56 85 q 88 46 56 46 l 364 46 q 389 56 378 46 q 400 85 400 65 l 400 108 q 364 146 400 146 l 114 146 l 114 192 l 276 192 l 276 217 q 266 224 269 217 q 263 239 263 231 l 263 371 q 286 433 263 410 q 338 456 310 456 l 367 456 q 419 433 394 456 q 443 371 443 410 l 443 228 q 431 199 443 213 q 406 185 418 185 l 403 161 q 433 147 422 158 q 443 124 443 135 l 443 85 q 419 23 443 46 q 367 0 394 0 m 400 372 q 364 410 400 410 l 340 410 q 316 401 326 410 q 306 372 306 392 l 306 235 q 316 206 306 215 q 340 197 326 197 l 364 197 q 389 208 378 197 q 400 235 400 218 l 400 372 m 163 372 q 128 410 163 410 l 90 410 q 56 372 56 410 l 56 289 l 128 289 q 163 326 163 289 l 163 372 z "},"ఇ":{"ha":571,"x_min":13,"x_max":493,"o":"m 451 -1 l 451 167 q 441 197 451 186 q 415 207 431 207 l 386 207 l 386 83 q 363 22 386 44 q 311 -1 339 -1 l 86 -1 q 35 22 58 -1 q 13 83 13 44 l 13 167 q 35 230 13 207 q 86 253 58 253 l 343 253 l 343 371 q 333 400 343 390 q 308 410 324 410 l 254 410 q 219 371 219 410 l 219 351 l 178 351 l 178 371 q 166 400 178 390 q 140 410 154 410 l 90 410 q 56 371 56 410 l 56 322 l 13 322 l 13 371 q 35 433 13 410 q 86 456 58 456 l 143 456 q 171 447 157 456 q 200 414 185 438 q 219 449 211 442 q 238 456 226 456 l 311 456 q 363 433 339 456 q 386 371 386 410 l 386 253 l 424 253 q 472 233 451 253 q 493 172 493 213 l 493 -1 l 451 -1 m 343 207 l 90 207 q 65 197 75 207 q 56 167 56 186 l 56 83 q 66 54 56 64 q 90 44 76 44 l 310 44 q 343 83 343 44 l 343 207 z "},"ఈ":{"ha":724,"x_min":13,"x_max":639,"o":"m 576 0 l 522 0 q 476 20 496 0 q 456 74 456 40 l 456 207 l 456 210 q 459 216 457 213 q 465 231 461 219 l 385 231 l 385 74 q 364 20 385 40 q 318 0 343 0 l 133 0 q 90 19 108 0 q 71 74 71 38 l 71 231 l 13 231 l 13 276 l 71 276 l 71 379 q 100 436 71 407 q 85 463 89 451 q 82 483 82 475 l 82 544 l 125 544 l 125 490 q 135 463 125 469 q 160 453 146 456 l 224 453 l 224 525 q 244 579 224 558 q 290 600 265 600 l 382 600 l 382 554 l 299 554 q 276 544 282 554 q 269 518 269 533 l 269 453 l 318 453 q 364 432 343 453 q 385 379 385 411 l 385 276 l 564 276 q 594 310 594 276 l 594 374 q 564 407 594 407 l 532 407 q 499 374 499 407 l 499 356 l 456 356 l 456 379 q 469 438 456 424 q 518 453 483 453 l 576 453 q 639 379 639 453 l 639 304 q 635 281 639 293 q 611 250 631 269 q 629 232 628 236 q 632 224 632 226 l 636 214 l 638 199 q 639 194 639 197 l 639 74 q 619 19 639 38 q 576 0 600 0 m 594 197 q 564 229 594 229 l 529 229 q 499 197 499 229 l 499 78 q 529 46 499 46 l 564 46 q 594 78 594 46 l 594 197 m 342 374 q 332 398 342 389 q 308 407 322 407 l 149 407 q 114 374 114 407 l 114 276 l 342 276 l 342 374 m 342 231 l 114 231 l 114 78 q 124 53 114 61 q 149 46 135 46 l 308 46 q 332 53 322 46 q 342 78 342 61 l 342 231 z "},"ఉ":{"ha":499,"x_min":13,"x_max":413,"o":"m 344 0 l 276 0 q 263 1 275 -1 q 226 26 250 3 q 169 0 200 0 l 103 0 q 59 20 79 0 q 39 72 39 40 l 39 232 l 13 232 l 13 278 l 39 278 l 39 382 q 59 434 39 414 q 103 454 79 454 l 201 454 l 201 542 l 244 542 l 244 454 l 344 454 q 392 434 371 454 q 413 382 413 414 l 413 351 l 369 351 l 369 376 q 363 399 369 390 q 340 408 356 408 l 111 408 q 81 376 81 408 l 81 278 l 232 278 l 232 232 l 81 232 l 81 81 q 111 46 81 46 l 171 46 q 197 56 190 46 q 204 79 204 65 l 204 117 l 247 117 l 247 81 q 278 46 247 46 l 340 46 q 363 57 356 46 q 369 82 369 68 l 369 197 q 363 222 369 213 q 340 232 356 232 l 317 232 l 317 278 l 344 278 q 392 258 371 278 q 413 206 413 238 l 413 75 q 391 21 413 42 q 344 0 369 0 z "},"ఊ":{"ha":786,"x_min":13,"x_max":699,"o":"m 632 0 l 582 0 q 536 19 556 0 q 517 71 517 39 l 517 183 q 518 202 517 192 q 525 228 519 213 l 463 228 l 463 274 l 625 274 q 656 301 656 274 l 656 375 q 647 401 656 394 q 625 408 639 408 l 585 408 q 563 397 569 408 q 557 375 557 386 l 557 336 l 513 336 l 513 381 q 533 433 513 411 q 578 454 553 454 l 632 454 q 678 433 657 454 q 699 381 699 411 l 699 303 q 694 271 699 281 q 674 246 689 261 q 693 229 689 235 q 699 218 697 224 l 699 203 l 699 190 l 699 71 q 678 19 699 39 q 632 0 658 0 m 344 0 l 276 0 q 263 1 275 -1 q 226 26 250 3 q 169 0 200 0 l 103 0 q 59 20 79 0 q 39 72 39 40 l 39 232 l 13 232 l 13 278 l 39 278 l 39 382 q 59 434 39 414 q 103 454 79 454 l 149 454 l 149 539 l 193 539 l 193 454 l 261 454 l 261 539 l 306 539 l 306 454 l 344 454 q 392 434 371 454 q 413 382 413 414 l 413 351 l 369 351 l 369 376 q 363 399 369 390 q 340 408 356 408 l 111 408 q 81 376 81 408 l 81 278 l 232 278 l 232 232 l 81 232 l 81 81 q 111 46 81 46 l 171 46 q 197 56 190 46 q 204 79 204 65 l 204 117 l 247 117 l 247 81 q 278 46 247 46 l 340 46 q 363 57 356 46 q 369 82 369 68 l 369 197 q 340 232 369 232 l 317 232 l 317 278 l 344 278 q 392 258 371 278 q 413 206 413 238 l 413 75 q 391 21 413 42 q 344 0 369 0 m 656 190 q 625 224 656 224 l 589 224 q 561 190 561 224 l 561 74 q 589 46 561 46 l 625 46 q 656 74 656 46 l 656 190 z "},"ఋ":{"ha":844,"x_min":13,"x_max":769,"o":"m 694 0 l 625 0 q 595 7 610 0 q 565 33 581 14 q 533 7 547 14 q 506 0 519 0 l 436 0 q 408 8 424 0 q 376 35 392 15 q 344 8 358 15 q 315 0 329 0 l 249 0 q 226 6 238 0 q 201 29 214 13 q 176 5 190 10 q 146 0 161 0 l 88 0 q 35 23 58 0 q 13 85 13 46 l 13 194 q 35 258 13 235 q 88 281 58 281 l 142 281 q 179 318 179 281 l 179 372 q 142 410 179 410 l 90 410 q 56 372 56 410 l 56 351 l 13 351 l 13 371 q 35 433 13 410 q 88 456 58 456 l 144 456 q 197 433 174 456 q 221 371 221 410 l 221 319 q 197 257 221 279 q 144 235 174 235 l 90 235 q 66 224 76 235 q 56 194 56 214 l 56 85 q 66 56 56 65 q 90 46 76 46 l 142 46 q 179 85 179 46 l 179 118 l 221 118 l 221 85 q 257 46 221 46 l 313 46 q 338 56 326 46 q 349 85 349 65 l 349 372 q 313 410 349 410 l 292 410 l 292 456 l 315 456 q 367 433 343 456 q 392 371 392 410 l 392 111 q 406 63 392 79 q 439 47 419 47 l 503 47 q 528 57 517 47 q 539 86 539 67 l 539 374 q 503 411 539 411 l 494 411 l 494 457 l 506 457 q 557 434 533 457 q 581 372 581 411 l 581 110 q 594 62 581 78 q 628 46 608 46 l 692 46 q 717 56 706 46 q 728 85 728 65 l 728 372 q 692 410 728 410 l 683 410 l 683 456 l 694 456 q 746 433 722 456 q 769 371 769 410 l 769 85 q 746 23 769 46 q 694 0 722 0 z "},"ఌ":{"ha":503,"x_min":14,"x_max":393,"o":"m 318 -196 l 210 -196 q 158 -173 181 -196 q 135 -110 135 -150 l 135 106 q 158 163 135 143 q 208 189 181 182 l 311 217 q 342 233 331 222 q 353 260 353 243 l 353 369 q 314 411 353 411 l 263 411 q 225 369 225 411 l 225 351 l 185 351 l 185 369 q 173 401 185 390 q 147 411 161 411 l 90 411 q 53 369 53 411 l 53 289 q 90 247 53 247 l 96 247 l 96 207 l 88 207 q 36 229 58 207 q 14 290 14 251 l 14 369 q 36 433 14 410 q 88 456 58 456 l 153 456 q 176 451 164 456 q 203 433 188 447 q 233 452 221 449 q 257 456 246 456 l 318 456 q 370 433 347 456 q 393 369 393 410 l 393 260 q 368 199 393 219 q 319 174 343 179 l 215 147 q 188 128 200 143 q 175 94 175 114 l 175 -111 q 213 -151 175 -151 l 314 -151 q 353 -111 353 -151 l 353 49 l 393 49 l 393 -111 q 370 -172 393 -149 q 318 -196 347 -196 z "},"ఎ":{"ha":483,"x_min":13,"x_max":390,"o":"m 314 0 l 253 0 q 230 5 242 0 q 203 25 218 10 q 147 0 174 0 l 88 0 q 35 24 58 0 q 13 85 13 47 l 13 210 q 35 273 13 250 q 88 296 58 296 l 147 296 q 199 273 175 296 q 224 210 224 250 l 224 85 l 224 71 q 260 46 236 46 l 311 46 q 336 56 326 46 q 346 85 346 65 l 346 403 q 311 440 346 440 l 208 440 l 208 488 l 314 488 q 366 464 342 488 q 390 401 390 440 l 390 85 q 366 24 390 49 q 314 0 342 0 m 181 211 q 169 241 181 231 q 144 251 158 251 l 90 251 q 56 211 56 251 l 56 85 q 66 56 56 65 q 90 46 76 46 l 144 46 q 169 56 158 46 q 181 85 181 65 l 181 211 z "},"ఏ":{"ha":483,"x_min":13,"x_max":390,"o":"m 114 546 q 78 508 78 546 l 78 432 l 36 432 l 36 507 q 59 568 36 544 q 111 592 82 592 l 204 592 l 204 546 l 114 546 m 314 0 l 253 0 q 230 5 242 0 q 203 24 218 10 q 147 0 174 0 l 88 0 q 35 24 58 0 q 13 85 13 47 l 13 210 q 35 269 13 246 q 88 293 58 293 l 147 293 q 199 269 175 293 q 224 210 224 246 l 224 85 l 224 69 q 260 46 236 46 l 311 46 q 336 56 326 46 q 346 85 346 65 l 346 399 q 311 438 346 438 l 208 438 l 208 483 l 314 483 q 366 460 342 483 q 390 397 390 436 l 390 85 q 366 24 390 47 q 314 0 342 0 m 181 211 q 169 240 181 231 q 144 249 158 249 l 90 249 q 56 211 56 249 l 56 85 q 66 56 56 65 q 90 46 76 46 l 144 46 q 169 56 158 46 q 181 85 181 65 l 181 211 z "},"ఐ":{"ha":482,"x_min":13,"x_max":388,"o":"m 313 0 l 246 0 q 199 24 231 0 q 144 0 169 0 l 86 0 q 35 23 58 0 q 13 85 13 46 l 13 193 q 35 255 13 233 q 86 276 58 276 l 144 276 q 198 255 175 276 q 221 193 221 233 l 221 85 l 221 72 q 260 46 235 46 l 310 46 q 335 56 325 46 q 344 85 344 65 l 344 372 q 310 410 344 410 l 254 410 q 219 372 219 410 l 219 351 l 178 351 l 178 372 q 166 401 178 393 q 140 410 154 410 l 90 410 q 56 372 56 410 l 56 338 l 13 338 l 13 372 q 35 432 13 408 q 86 456 58 456 l 144 456 q 201 428 169 456 q 223 449 213 443 q 239 456 233 456 l 313 456 q 364 433 340 456 q 388 372 388 411 l 388 85 q 364 23 388 46 q 313 0 340 0 m 179 193 q 142 232 179 232 l 90 232 q 56 193 56 232 l 56 85 q 66 56 56 65 q 90 46 76 46 l 142 46 q 179 85 179 46 l 179 193 z "},"ఒ":{"ha":442,"x_min":13,"x_max":364,"o":"m 288 0 l 236 0 q 213 6 225 0 q 190 22 201 13 q 172 13 179 17 q 158 6 165 8 q 145 1 151 3 q 132 0 139 0 l 88 0 q 35 23 58 0 q 13 85 13 46 l 13 194 q 35 258 13 235 q 88 281 58 281 l 142 281 q 179 318 179 281 l 179 372 q 142 410 179 410 l 90 410 q 56 372 56 410 l 56 338 l 13 338 l 13 371 q 35 433 13 410 q 88 456 58 456 l 144 456 q 197 433 174 456 q 221 371 221 410 l 221 319 q 197 257 221 279 q 144 235 174 235 l 90 235 q 66 224 76 235 q 56 194 56 214 l 56 85 q 66 56 56 65 q 90 46 76 46 l 128 46 q 165 85 165 46 l 165 118 l 207 118 l 207 85 q 243 46 207 46 l 285 46 q 310 56 299 46 q 321 85 321 65 l 321 151 l 364 151 l 364 85 q 340 23 364 46 q 288 0 315 0 z "},"ఓ":{"ha":442,"x_min":13,"x_max":364,"o":"m 288 0 l 236 0 q 190 22 213 0 q 172 13 179 17 q 158 6 165 8 q 145 1 151 3 q 132 0 139 0 l 88 0 q 35 23 58 0 q 13 83 13 46 l 13 193 q 35 253 13 231 q 88 276 58 276 l 142 276 q 179 313 179 276 l 179 368 q 142 404 179 404 l 90 404 q 56 368 56 404 l 56 332 l 13 332 l 13 367 q 36 426 13 403 q 92 450 60 449 l 92 517 q 156 592 92 592 l 200 592 q 249 577 233 592 q 264 518 264 563 l 264 496 l 221 496 l 221 511 q 185 546 221 546 l 165 546 q 142 536 150 546 q 135 511 135 526 l 135 450 l 144 450 q 197 426 174 450 q 221 367 221 403 l 221 314 q 197 255 221 278 q 144 232 174 232 l 90 232 q 66 222 76 232 q 56 193 56 213 l 56 83 q 66 55 56 64 q 90 46 76 46 l 128 46 q 165 83 165 46 l 165 118 l 207 118 l 207 83 q 243 46 207 46 l 285 46 q 310 55 299 46 q 321 83 321 64 l 321 149 l 364 149 l 364 83 q 340 24 364 47 q 288 0 315 0 z "},"ఔ":{"ha":578,"x_min":13,"x_max":494,"o":"m 419 242 l 383 242 q 332 265 354 242 q 310 325 310 289 l 310 376 q 331 438 310 417 q 383 458 353 458 l 451 458 l 451 507 q 414 544 451 544 l 217 544 q 226 511 226 515 l 226 469 q 201 422 226 447 q 221 367 221 392 l 221 314 q 197 255 221 278 q 144 232 174 232 l 90 232 q 66 222 76 232 q 56 193 56 213 l 56 83 q 66 55 56 64 q 90 46 76 46 l 128 46 q 165 83 165 46 l 165 118 l 207 118 l 207 83 q 243 46 207 46 l 285 46 q 310 55 299 46 q 321 83 321 64 l 321 149 l 364 149 l 364 83 q 340 24 364 47 q 288 0 315 0 l 236 0 q 190 22 213 0 q 172 13 179 17 q 158 6 165 8 q 145 1 151 3 q 132 0 139 0 l 88 0 q 35 23 58 0 q 13 83 13 46 l 13 193 q 35 253 13 231 q 88 276 58 276 l 142 276 q 179 313 179 276 l 179 368 q 142 404 179 404 l 94 404 l 90 404 q 56 368 56 404 l 56 332 l 13 332 l 13 367 q 35 426 13 403 q 88 450 58 450 l 92 450 l 144 450 l 149 450 l 156 450 q 177 460 172 450 q 182 479 182 469 l 182 510 q 158 544 182 535 l 13 544 l 13 592 l 419 592 q 472 568 449 592 q 494 507 494 544 l 494 325 q 472 265 494 289 q 419 242 449 242 m 451 413 l 389 413 q 365 403 375 413 q 354 374 354 393 l 354 325 q 365 297 354 306 q 389 288 375 288 l 414 288 q 451 325 451 288 l 451 413 z "},"క":{"ha":421,"x_min":13,"x_max":329,"o":"m 256 585 q 232 577 242 585 q 222 550 222 569 l 222 449 l 251 449 q 303 426 279 449 q 326 367 326 403 l 326 318 l 285 318 l 285 368 q 274 396 285 388 q 249 404 263 404 l 90 404 q 54 368 54 404 l 54 289 q 90 251 54 251 l 251 251 q 303 229 279 251 q 326 168 326 207 l 326 83 q 303 23 326 46 q 251 0 279 0 l 88 0 q 35 23 58 0 q 13 83 13 46 l 13 129 l 54 129 l 54 83 q 90 46 54 46 l 249 46 q 274 55 263 46 q 285 83 285 64 l 285 168 q 274 197 285 186 q 249 208 264 208 l 88 208 q 35 231 58 208 q 13 290 13 254 l 13 367 q 16 394 13 381 q 31 424 19 407 q 16 456 19 439 q 13 492 13 472 l 13 525 l 56 525 l 56 497 q 65 458 56 469 q 94 447 75 447 l 113 447 l 176 450 l 178 558 q 200 608 179 589 q 244 628 221 628 l 329 628 l 329 585 l 256 585 z "},"ఖ":{"ha":506,"x_min":13,"x_max":404,"o":"m 328 6 l 249 6 q 204 26 225 6 q 172 11 185 17 q 144 6 160 6 l 88 6 q 35 28 57 6 q 13 88 13 51 l 13 211 q 35 271 13 247 q 88 294 58 294 l 144 294 q 155 293 150 294 q 178 288 160 292 l 178 372 q 167 401 178 393 q 142 410 156 410 l 90 410 q 56 372 56 410 l 56 349 l 13 349 l 13 371 q 35 432 13 408 q 88 456 58 456 l 144 456 q 197 432 172 456 q 221 371 221 408 l 221 88 q 231 59 221 68 q 256 50 242 50 l 325 50 q 349 59 339 50 q 360 88 360 68 l 360 372 q 325 410 360 410 l 317 410 l 317 456 l 328 456 q 380 432 356 456 q 404 371 404 408 l 404 88 q 380 28 404 51 q 328 6 356 6 m 181 -128 l 181 -37 q 191 -31 186 -35 q 201 -22 196 -26 q 222 -37 211 -32 l 222 -128 l 181 -128 m 178 213 q 167 240 178 232 q 142 249 156 249 l 90 249 q 56 213 56 249 l 56 88 q 66 59 56 68 q 90 50 76 50 l 142 50 q 167 59 156 50 q 178 88 178 68 l 178 213 z "},"గ":{"ha":425,"x_min":13,"x_max":342,"o":"m 282 585 q 258 577 268 585 q 249 550 249 569 l 246 449 l 260 449 q 311 426 288 449 q 335 367 335 403 l 335 0 l 293 0 l 293 368 q 264 403 293 399 l 251 403 l 107 404 l 90 404 q 54 368 54 404 l 54 0 l 13 0 l 13 367 q 54 442 13 410 q 42 473 44 457 q 39 506 39 489 l 39 525 l 82 525 l 82 511 q 93 466 82 483 q 131 449 104 449 l 203 449 l 204 558 q 226 608 206 589 q 271 628 247 628 l 342 628 l 342 585 l 282 585 z "},"ఘ":{"ha":693,"x_min":13,"x_max":599,"o":"m 231 582 q 203 551 203 582 l 203 481 q 184 423 203 443 q 136 403 165 403 l 14 403 l 14 449 l 126 449 q 160 481 160 449 l 160 549 q 179 608 160 588 q 226 628 199 628 l 329 628 l 329 582 l 231 582 m 524 3 l 454 3 q 426 10 442 3 q 394 35 410 18 q 336 3 363 3 l 265 3 q 240 9 254 3 q 211 32 226 15 q 161 3 182 3 l 88 3 q 35 26 58 3 q 13 86 13 50 l 13 228 q 35 285 13 264 q 88 307 57 307 l 156 307 q 209 285 186 307 q 232 228 232 264 l 232 86 q 268 49 232 49 l 333 49 q 358 58 347 49 q 368 86 368 67 l 368 368 q 333 406 368 406 l 325 406 l 325 450 l 336 450 q 388 428 364 450 q 411 367 411 406 l 411 110 q 422 66 411 83 q 457 49 433 49 l 521 49 q 557 86 557 49 l 557 368 q 521 406 557 406 l 513 406 l 513 450 l 524 450 q 576 428 553 450 q 599 367 599 407 l 599 86 q 576 26 599 50 q 524 3 553 3 m 192 -115 l 192 -51 q 210 -40 201 -49 q 216 -44 213 -43 q 222 -49 219 -46 l 225 -50 l 225 -115 l 192 -115 m 190 226 q 153 264 190 264 l 90 264 q 56 226 56 264 l 56 86 q 66 58 56 67 q 90 49 76 49 l 153 49 q 190 86 190 49 l 190 226 z "},"ఙ":{"ha":483,"x_min":13,"x_max":397,"o":"m 221 319 l 221 299 q 201 253 221 272 q 156 233 182 233 l 85 233 q 63 223 69 233 q 56 196 56 213 l 56 79 q 85 46 56 46 l 143 46 q 168 56 158 46 q 178 78 178 65 l 178 118 l 219 118 l 219 78 q 251 46 219 46 l 314 46 q 344 79 344 46 l 344 163 l 388 163 l 388 74 q 367 20 388 40 q 321 0 346 0 l 251 0 q 235 3 249 0 q 199 26 222 7 q 173 6 185 13 q 142 0 161 0 l 78 0 q 33 20 53 0 q 13 74 13 40 l 13 204 q 33 256 13 236 q 78 276 53 276 l 146 276 q 169 286 160 276 q 179 311 179 296 l 179 376 q 169 403 179 396 q 146 410 160 410 l 85 410 q 56 376 56 410 l 56 350 l 13 350 l 13 382 q 33 435 13 415 q 78 456 53 456 l 156 456 q 200 435 179 456 q 221 382 221 415 l 221 365 l 297 365 l 297 442 l 342 442 l 342 365 l 397 365 l 397 319 l 221 319 z "},"చ":{"ha":539,"x_min":13,"x_max":444,"o":"m 379 0 l 310 0 l 303 0 q 281 6 292 0 q 256 25 271 13 q 200 0 231 0 l 133 0 q 88 20 108 0 q 68 72 68 40 l 68 233 q 69 240 68 236 q 74 258 69 243 l 13 258 l 13 301 l 154 301 l 154 258 l 143 258 q 120 249 129 258 q 111 225 111 239 l 111 78 q 143 46 111 46 l 201 46 q 228 56 221 46 q 235 78 235 67 l 235 131 l 278 131 l 278 76 q 310 46 278 46 l 369 46 q 391 53 381 46 q 401 79 401 60 l 401 372 q 369 404 401 404 l 275 404 l 181 404 l 156 404 q 106 424 131 404 q 82 472 82 443 l 82 510 l 128 510 l 128 497 q 172 449 128 449 l 181 449 l 218 449 l 219 558 q 242 608 221 589 q 286 628 263 628 l 444 628 l 444 585 l 297 585 q 274 577 283 585 q 264 550 264 569 l 264 449 l 379 449 q 424 429 404 449 q 444 378 444 410 l 444 72 q 424 20 444 40 q 379 0 404 0 z "},"ఛ":{"ha":538,"x_min":13,"x_max":444,"o":"m 68 235 l 68 239 l 74 261 l 13 261 l 13 304 l 154 304 l 154 261 l 143 261 q 120 251 129 261 q 111 228 111 242 l 111 81 q 143 49 111 49 l 201 49 q 228 59 221 49 q 235 81 235 69 l 235 133 l 278 133 l 278 79 q 310 49 278 49 l 369 49 q 391 56 381 49 q 401 82 401 63 l 401 372 q 369 406 401 406 l 275 406 l 181 406 l 156 406 q 106 424 129 406 q 82 474 82 443 l 82 511 l 128 511 l 128 499 q 172 450 128 450 l 181 450 l 218 450 l 219 560 q 242 608 221 589 q 286 628 263 628 l 444 628 l 444 585 l 297 585 q 274 578 283 585 q 264 551 264 571 l 264 450 l 379 450 q 425 432 406 450 q 444 378 444 414 l 444 75 q 424 24 444 44 q 379 3 404 3 l 310 3 l 303 3 q 256 28 285 3 q 200 3 231 3 l 133 3 q 88 24 108 3 q 68 75 68 44 l 68 235 m 233 -117 l 233 -53 q 251 -42 243 -50 q 258 -46 254 -44 q 264 -50 261 -47 l 267 -51 l 267 -117 l 233 -117 z "},"జ":{"ha":482,"x_min":13,"x_max":388,"o":"m 321 0 l 251 0 q 235 3 249 0 q 199 26 222 7 q 173 6 185 13 q 142 0 161 0 l 78 0 q 33 20 53 0 q 13 74 13 40 l 13 204 q 33 256 13 236 q 78 276 53 276 l 146 276 q 169 286 160 276 q 179 311 179 296 l 179 376 q 169 403 179 396 q 146 410 160 410 l 85 410 q 56 376 56 410 l 56 350 l 13 350 l 13 382 q 33 435 13 415 q 78 456 53 456 l 156 456 q 200 435 179 456 q 221 382 221 415 l 221 314 q 231 288 221 296 q 251 281 240 281 l 311 281 q 343 314 343 281 l 343 376 q 333 401 343 393 q 311 410 322 410 l 300 410 l 300 456 l 319 456 q 365 435 344 456 q 386 382 386 415 l 386 310 q 365 256 386 276 q 319 236 344 236 l 253 236 l 246 236 q 224 242 235 236 q 199 260 214 249 q 172 241 183 249 q 142 233 160 233 l 85 233 q 63 223 69 233 q 56 196 56 213 l 56 79 q 85 46 56 46 l 143 46 q 168 56 158 46 q 178 78 178 65 l 178 104 l 219 104 l 219 78 q 251 46 219 46 l 314 46 q 344 79 344 46 l 344 163 l 388 163 l 388 74 q 367 20 388 40 q 321 0 346 0 z "},"ఝ":{"ha":793,"x_min":13,"x_max":708,"o":"m 633 4 l 564 4 q 536 11 551 4 q 506 35 521 18 q 447 4 475 4 l 378 4 q 350 11 365 4 q 319 35 335 18 q 285 10 300 15 q 263 4 269 4 l 86 4 q 35 27 58 4 q 13 86 13 50 l 13 368 q 22 406 13 389 q 53 443 31 424 q 40 465 43 456 q 38 482 38 474 l 38 525 l 79 525 l 79 488 q 108 453 79 458 l 125 450 l 186 450 l 186 557 q 206 608 186 589 q 251 628 225 628 l 335 628 l 335 582 l 260 582 q 237 576 246 582 q 228 550 228 569 l 228 450 l 260 450 q 311 427 288 450 q 335 368 335 404 l 335 110 q 351 65 342 81 q 381 49 361 49 l 444 49 q 481 86 481 49 l 481 368 q 444 406 481 406 l 436 406 l 436 450 l 447 450 q 499 428 476 450 q 522 367 522 407 l 522 99 q 538 63 529 78 q 567 49 547 49 l 631 49 q 656 58 644 49 q 667 86 667 67 l 667 368 q 631 406 667 406 l 622 406 l 622 450 l 633 450 q 685 428 661 450 q 708 367 708 407 l 708 86 q 685 27 708 50 q 633 4 661 4 m 486 -128 l 486 -50 q 504 -39 496 -47 l 517 -47 l 519 -49 l 519 -128 l 486 -128 m 292 368 q 281 397 292 388 q 257 406 271 406 l 90 406 q 56 368 56 406 l 56 86 q 90 49 56 49 l 257 49 q 281 58 271 49 q 292 86 292 67 l 292 368 z "},"ఞ":{"ha":643,"x_min":13,"x_max":569,"o":"m 386 318 l 386 253 l 424 253 q 472 233 451 253 q 493 172 493 213 l 493 -1 l 451 -1 l 451 167 q 441 197 451 186 q 415 207 431 207 l 386 207 l 386 83 q 363 22 386 44 q 311 -1 339 -1 l 86 -1 q 35 22 58 -1 q 13 83 13 44 l 13 167 q 35 230 13 207 q 86 253 58 253 l 343 253 l 343 371 q 333 400 343 390 q 308 410 324 410 l 254 410 q 219 371 219 410 l 219 351 l 178 351 l 178 371 q 166 400 178 390 q 140 410 154 410 l 90 410 q 56 371 56 410 l 56 322 l 13 322 l 13 371 q 35 433 13 410 q 86 456 58 456 l 143 456 q 171 447 157 456 q 200 414 185 438 q 219 449 211 442 q 238 456 226 456 l 311 456 q 360 433 338 456 q 386 364 383 410 l 471 364 l 471 442 l 515 442 l 515 364 l 569 364 l 569 318 l 386 318 m 343 207 l 90 207 q 65 197 75 207 q 56 167 56 186 l 56 83 q 66 54 56 64 q 90 44 76 44 l 310 44 q 343 83 343 44 l 343 207 z "},"ట":{"ha":506,"x_min":13,"x_max":419,"o":"m 343 0 l 260 0 q 215 21 236 0 q 194 5 204 10 q 176 0 183 0 l 88 0 q 35 24 58 0 q 13 85 13 47 l 13 369 q 36 429 13 406 q 96 454 60 453 l 96 543 l 139 543 l 139 454 q 198 428 175 451 q 221 369 221 406 l 221 286 q 197 226 221 250 q 144 201 174 201 l 56 201 l 56 85 q 66 56 56 65 q 90 46 76 46 l 156 46 q 193 85 193 46 l 193 131 l 235 131 l 235 85 q 271 46 235 46 l 340 46 q 365 56 354 46 q 376 85 376 65 l 376 371 q 340 408 376 408 l 333 408 l 333 454 l 343 454 q 395 431 371 454 q 419 369 419 408 l 419 85 q 395 24 419 47 q 343 0 371 0 m 179 371 q 142 408 179 408 l 90 408 q 56 371 56 408 l 56 246 l 142 246 q 179 285 179 246 l 179 371 z "},"ఠ":{"ha":433,"x_min":13,"x_max":335,"o":"m 263 0 l 86 0 q 35 23 58 0 q 13 83 13 46 l 13 368 q 22 406 13 389 q 53 442 31 424 q 40 463 43 454 q 38 481 38 472 l 38 525 l 79 525 l 79 486 q 108 453 79 457 l 125 449 l 186 449 l 186 556 q 206 608 186 589 q 251 628 225 628 l 335 628 l 335 582 l 260 582 q 237 575 246 582 q 228 549 228 568 l 228 449 l 260 449 q 311 426 288 449 q 335 368 335 403 l 335 83 q 326 42 335 58 q 305 17 317 26 q 281 3 293 7 q 263 0 268 0 m 292 368 q 281 396 292 388 q 257 404 271 404 l 90 404 q 56 368 56 404 l 56 83 q 90 46 56 46 l 257 46 q 281 55 271 46 q 292 83 292 64 l 292 368 m 158 196 l 158 240 l 192 240 l 192 196 l 158 196 z "},"డ":{"ha":490,"x_min":13,"x_max":414,"o":"m 347 0 l 267 0 l 261 0 q 243 3 250 0 q 229 14 236 7 q 224 19 226 17 q 214 26 221 21 q 157 0 188 0 l 76 0 q 33 20 53 0 q 13 72 13 40 l 13 378 q 38 436 13 406 q 17 458 22 449 q 13 481 13 467 l 13 553 l 54 553 l 54 488 q 83 453 54 457 l 100 450 l 189 450 l 189 549 q 208 601 189 582 q 254 621 228 621 l 407 621 l 407 578 l 263 578 q 240 571 249 578 q 231 544 231 564 l 231 450 l 333 450 q 380 430 360 450 q 400 378 400 410 l 400 347 l 357 347 l 357 372 q 328 404 357 404 l 85 404 q 56 372 56 404 l 56 79 q 85 46 56 46 l 158 46 q 183 56 174 46 q 193 78 193 65 l 193 131 l 235 131 l 235 79 q 242 55 235 64 q 265 46 250 46 l 342 46 q 371 81 371 46 l 371 194 q 342 229 371 229 l 304 229 l 304 275 l 347 275 q 394 256 374 275 q 414 203 414 236 l 414 75 q 393 21 414 42 q 347 0 372 0 z "},"ఢ":{"ha":490,"x_min":13,"x_max":414,"o":"m 347 4 l 267 4 l 261 4 q 229 17 243 4 q 224 22 226 19 q 214 29 221 25 q 157 4 189 4 l 76 4 q 33 24 53 4 q 13 75 13 44 l 13 379 q 38 438 13 407 q 17 458 22 449 q 13 482 13 467 l 13 553 l 54 553 l 54 489 q 83 453 54 458 l 100 450 l 189 450 l 189 550 q 208 601 189 582 q 254 621 228 621 l 407 621 l 407 578 l 263 578 q 240 572 249 578 q 231 546 231 565 l 231 450 l 333 450 q 380 432 360 450 q 400 379 400 414 l 400 350 l 357 350 l 357 374 q 328 406 357 406 l 85 406 q 56 374 56 406 l 56 82 q 85 49 56 49 l 158 49 q 183 58 174 49 q 193 81 193 68 l 193 133 l 235 133 l 235 82 q 242 60 235 71 q 265 49 250 49 l 342 49 q 371 83 371 49 l 371 197 q 342 232 371 232 l 304 232 l 304 276 l 347 276 q 394 258 374 276 q 414 207 414 239 l 414 78 q 393 25 414 46 q 347 4 372 4 m 193 -132 l 193 -54 q 211 -43 203 -51 l 224 -51 l 226 -53 l 226 -132 l 193 -132 z "},"ణ":{"ha":504,"x_min":13,"x_max":415,"o":"m 339 0 l 265 0 q 215 23 238 0 q 192 85 192 46 l 192 165 q 215 226 192 204 q 265 249 238 249 l 344 249 l 347 249 q 353 247 350 249 q 358 247 356 247 q 372 244 361 246 l 372 372 q 336 410 372 410 l 268 410 q 244 401 254 410 q 233 372 233 392 l 233 350 l 192 350 l 192 372 q 180 401 192 393 q 154 410 168 410 l 90 410 q 56 372 56 410 l 56 286 q 90 249 56 249 l 111 249 l 111 204 l 90 204 q 56 167 56 204 l 56 85 q 66 56 56 65 q 90 46 76 46 l 111 46 l 111 0 l 88 0 q 35 23 58 0 q 13 85 13 46 l 13 167 q 18 202 13 190 q 39 231 24 214 q 17 251 22 242 q 13 281 13 261 l 13 371 q 35 433 13 410 q 88 456 58 456 l 158 456 q 188 450 182 456 q 194 446 193 447 q 201 440 197 443 q 215 429 204 438 q 235 450 226 444 q 254 456 243 456 l 339 456 q 392 433 368 456 q 415 371 415 410 l 415 85 q 392 23 415 46 q 339 0 368 0 m 372 175 q 335 204 361 204 l 268 204 q 244 195 254 204 q 233 167 233 186 l 233 85 q 244 56 233 65 q 268 46 254 46 l 336 46 q 361 56 350 46 q 372 85 372 65 l 372 175 z "},"త":{"ha":507,"x_min":13,"x_max":432,"o":"m 356 0 l 88 0 q 35 23 58 0 q 13 83 13 46 l 13 235 q 29 294 13 271 q 75 317 46 317 l 126 317 q 178 294 154 317 q 201 235 201 271 l 201 210 q 178 148 201 169 q 126 126 154 126 l 56 126 l 56 83 q 66 55 56 64 q 90 46 76 46 l 353 46 q 378 55 367 46 q 389 83 389 64 l 389 126 l 317 126 q 265 150 289 126 q 242 211 242 174 l 242 235 q 265 294 242 271 q 317 317 289 317 l 354 317 q 362 326 360 318 q 364 336 364 335 l 364 368 q 360 394 364 383 q 336 404 356 404 l 82 404 l 82 449 l 201 449 l 201 556 q 221 605 201 586 q 264 624 240 624 l 429 624 l 429 581 l 274 581 q 253 573 263 581 q 243 549 243 565 l 243 449 l 335 449 q 386 432 367 449 q 406 375 406 415 l 406 329 q 397 303 406 317 q 432 233 432 269 l 432 83 q 408 23 432 46 q 356 0 383 0 m 389 233 q 378 262 389 253 q 353 271 367 271 l 319 271 q 296 262 306 271 q 286 233 286 253 l 286 210 q 295 180 286 190 q 319 169 304 169 l 389 169 l 389 233 m 158 233 q 147 262 158 253 q 122 271 136 271 l 78 271 q 57 254 60 271 q 56 243 56 249 q 56 233 56 238 l 56 169 l 122 169 q 147 180 136 169 q 158 210 158 190 l 158 233 z "},"థ":{"ha":510,"x_min":13,"x_max":418,"o":"m 335 583 q 312 577 321 583 q 303 551 303 571 l 300 450 l 350 450 q 397 432 376 450 q 417 379 417 414 l 417 75 q 397 24 417 43 q 350 4 376 4 l 249 4 q 236 8 243 4 q 214 29 229 13 q 186 9 199 14 q 158 4 174 4 l 76 4 q 32 24 51 4 q 13 75 13 43 l 13 379 q 29 425 13 407 q 74 451 46 443 q 70 472 71 465 q 69 481 69 478 l 69 551 l 111 551 l 111 486 q 124 460 111 467 q 149 450 136 453 l 258 450 l 260 557 q 281 608 261 589 q 326 626 300 626 l 418 626 l 418 583 l 335 583 m 193 -133 l 193 -56 q 211 -44 203 -53 l 224 -53 l 226 -54 l 226 -133 l 193 -133 m 374 371 q 342 406 374 406 l 83 406 q 56 369 56 406 l 56 79 q 83 49 56 49 l 160 49 q 193 79 193 49 l 193 133 l 235 133 l 235 79 q 265 49 235 49 l 342 49 q 374 79 374 49 l 374 371 m 192 228 l 192 288 l 238 288 l 238 228 l 192 228 z "},"ద":{"ha":510,"x_min":13,"x_max":418,"o":"m 335 583 q 312 576 321 583 q 303 550 303 569 l 300 449 l 350 449 q 397 431 376 449 q 417 378 417 413 l 417 74 q 397 21 417 40 q 350 1 376 1 l 249 1 q 236 6 243 1 q 214 26 229 11 q 158 1 188 1 l 76 1 q 32 21 51 1 q 13 74 13 40 l 13 378 q 29 424 13 406 q 74 451 46 443 q 70 470 71 464 q 69 479 69 476 l 69 551 l 111 551 l 111 485 q 124 458 111 465 q 149 449 136 451 l 258 449 l 260 556 q 281 608 261 589 q 326 626 300 626 l 418 626 l 418 583 l 335 583 m 374 371 q 342 406 374 406 l 83 406 q 62 395 68 406 q 56 369 56 385 l 56 78 q 83 47 56 47 l 160 47 q 193 78 193 47 l 193 132 l 235 132 l 235 78 q 265 47 235 47 l 342 47 q 374 78 374 47 l 374 371 z "},"ధ":{"ha":510,"x_min":13,"x_max":418,"o":"m 335 583 q 312 577 321 583 q 303 551 303 571 l 300 450 l 350 450 q 397 432 376 450 q 417 379 417 414 l 417 75 q 397 24 417 43 q 350 4 376 4 l 249 4 q 236 8 243 4 q 214 29 229 13 q 186 9 199 14 q 158 4 174 4 l 76 4 q 32 24 51 4 q 13 75 13 43 l 13 379 q 29 425 13 407 q 74 451 46 443 q 70 472 71 465 q 69 481 69 478 l 69 551 l 111 551 l 111 486 q 124 460 111 467 q 149 450 136 453 l 258 450 l 260 557 q 281 608 261 589 q 326 626 300 626 l 418 626 l 418 583 l 335 583 m 193 -133 l 193 -56 q 211 -44 203 -53 l 224 -53 l 226 -54 l 226 -133 l 193 -133 m 374 371 q 342 406 374 406 l 83 406 q 56 369 56 406 l 56 79 q 83 49 56 49 l 160 49 q 193 79 193 49 l 193 133 l 235 133 l 235 79 q 265 49 235 49 l 342 49 q 374 79 374 49 l 374 371 z "},"న":{"ha":506,"x_min":13,"x_max":414,"o":"m 339 0 l 267 0 q 215 23 239 0 q 192 83 192 46 l 192 208 q 181 236 192 228 q 156 247 169 244 l 90 247 q 56 208 56 247 l 56 0 l 13 0 l 13 210 q 35 269 13 247 q 88 290 57 290 l 158 290 q 210 269 186 290 q 235 210 235 247 l 235 83 q 245 55 235 64 q 269 46 256 46 l 336 46 q 360 55 350 46 q 371 83 371 64 l 371 368 q 360 396 371 388 q 336 404 350 404 l 60 404 l 60 449 l 174 449 l 174 564 q 193 613 174 594 q 236 632 213 632 l 414 632 l 414 589 l 246 589 q 225 581 235 589 q 215 557 215 574 l 215 449 l 339 449 q 390 426 367 449 q 414 368 414 403 l 414 83 q 390 22 414 43 q 339 0 367 0 z "},"ప":{"ha":500,"x_min":13,"x_max":411,"o":"m 231 582 q 203 550 203 582 l 203 479 q 184 422 203 440 q 136 403 165 403 l 14 403 l 14 447 l 126 447 q 160 479 160 447 l 160 547 q 179 608 160 588 q 226 628 199 628 l 329 628 l 329 582 l 231 582 m 336 0 l 265 0 q 240 6 254 0 q 211 28 226 13 q 161 0 183 0 l 88 0 q 35 23 58 0 q 13 83 13 46 l 13 225 q 35 283 13 261 q 88 304 57 304 l 156 304 q 209 283 186 304 q 232 225 232 261 l 232 83 q 268 46 232 46 l 333 46 q 358 55 347 46 q 368 83 368 64 l 368 368 q 333 404 368 404 l 325 404 l 325 449 l 336 449 q 388 426 364 449 q 411 367 411 403 l 411 83 q 388 23 411 46 q 336 0 364 0 m 190 224 q 153 261 190 261 l 90 261 q 56 224 56 261 l 56 83 q 66 55 56 64 q 90 46 76 46 l 153 46 q 190 83 190 46 l 190 224 z "},"ఫ":{"ha":500,"x_min":13,"x_max":411,"o":"m 231 582 q 203 551 203 582 l 203 481 q 184 423 203 443 q 136 403 165 403 l 14 403 l 14 449 l 126 449 q 160 481 160 449 l 160 549 q 179 608 160 588 q 226 628 199 628 l 329 628 l 329 582 l 231 582 m 336 3 l 265 3 q 240 9 254 3 q 211 32 226 15 q 161 3 182 3 l 88 3 q 35 26 58 3 q 13 86 13 50 l 13 228 q 35 285 13 264 q 88 307 57 307 l 156 307 q 209 285 186 307 q 232 228 232 264 l 232 86 q 268 49 232 49 l 333 49 q 358 58 347 49 q 368 86 368 67 l 368 368 q 333 406 368 406 l 325 406 l 325 450 l 336 450 q 388 428 364 450 q 411 367 411 406 l 411 86 q 388 26 411 50 q 336 3 364 3 m 192 -115 l 192 -51 q 210 -40 201 -49 q 216 -44 213 -43 q 222 -49 219 -46 l 225 -50 l 225 -115 l 192 -115 m 190 226 q 153 264 190 264 l 90 264 q 56 226 56 264 l 56 86 q 66 58 56 67 q 90 49 76 49 l 153 49 q 190 86 190 49 l 190 226 z "},"బ":{"ha":486,"x_min":13,"x_max":392,"o":"m 315 0 l 249 0 q 201 22 232 0 q 174 6 186 11 q 146 0 161 0 l 88 0 q 35 23 58 0 q 13 85 13 46 l 13 194 q 35 258 13 235 q 88 281 58 281 l 142 281 q 179 318 179 281 l 179 372 q 142 410 179 410 l 90 410 q 56 372 56 410 l 56 338 l 13 338 l 13 371 q 35 433 13 410 q 88 456 58 456 l 144 456 q 197 433 174 456 q 221 371 221 410 l 221 319 q 197 257 221 279 q 144 235 174 235 l 90 235 q 66 224 76 235 q 56 194 56 214 l 56 85 q 66 56 56 65 q 90 46 76 46 l 142 46 q 179 85 179 46 l 179 133 l 221 133 l 221 85 q 257 46 221 46 l 313 46 q 338 56 326 46 q 349 85 349 65 l 349 372 q 313 410 349 410 l 306 410 l 306 456 l 315 456 q 367 433 343 456 q 392 371 392 410 l 392 85 q 367 23 392 46 q 315 0 343 0 z "},"భ":{"ha":486,"x_min":13,"x_max":410,"o":"m 367 585 q 336 553 333 585 l 338 446 q 377 415 363 435 q 392 367 392 394 l 392 86 q 367 26 392 50 q 315 3 343 3 l 249 3 q 201 28 233 3 q 173 10 185 17 q 146 3 161 3 l 88 3 q 35 26 58 3 q 13 86 13 50 l 13 167 q 35 226 13 203 q 88 249 58 249 l 142 249 q 179 285 179 249 l 179 326 q 142 363 179 363 l 90 363 q 56 326 56 363 l 56 300 l 13 300 l 13 325 q 35 384 13 361 q 88 407 58 407 l 144 407 q 197 384 174 407 q 221 325 221 361 l 221 286 q 197 227 221 250 q 144 204 174 204 l 90 204 q 66 195 76 204 q 56 167 56 186 l 56 86 q 66 58 56 67 q 90 49 76 49 l 142 49 q 179 86 179 49 l 179 135 l 221 135 l 221 86 q 257 49 221 49 l 313 49 q 338 58 326 49 q 349 86 349 67 l 349 368 q 313 406 349 406 l 293 406 l 272 406 q 256 407 269 406 q 227 414 243 408 q 199 432 211 419 q 186 468 186 444 l 186 496 l 228 496 l 228 488 q 228 473 228 481 q 235 460 229 465 q 247 453 240 454 q 260 450 253 451 l 293 450 l 293 558 q 313 609 293 590 q 358 628 332 628 l 410 628 l 410 585 l 367 585 m 181 -119 l 181 -56 q 199 -44 190 -53 q 205 -49 201 -47 q 211 -53 208 -50 l 214 -54 l 214 -119 l 181 -119 z "},"మ":{"ha":672,"x_min":11,"x_max":588,"o":"m 513 0 l 429 0 q 401 7 417 0 q 369 33 385 14 q 339 7 353 14 q 311 0 325 0 l 253 0 q 196 28 224 0 q 147 0 168 0 l 85 0 q 34 24 57 0 q 11 85 11 47 l 11 225 q 34 283 11 260 q 85 307 57 307 l 142 307 q 193 283 169 307 q 217 225 217 260 l 217 85 q 256 46 217 46 l 308 46 q 333 56 324 46 q 343 85 343 65 l 343 369 q 308 407 343 407 l 13 407 l 13 451 l 119 451 l 119 543 q 142 604 119 581 q 194 628 165 628 l 344 628 l 344 582 l 197 582 q 163 543 163 582 l 163 451 l 311 451 q 363 428 339 451 q 386 368 386 404 l 386 107 q 399 58 386 71 q 432 46 413 46 l 510 46 q 546 83 546 46 l 546 368 q 510 404 546 404 l 501 404 l 501 449 l 513 449 q 565 426 542 449 q 588 367 588 403 l 588 83 q 565 23 588 46 q 513 0 542 0 m 175 226 q 164 254 175 246 q 139 263 153 263 l 88 263 q 54 226 54 263 l 54 85 q 63 56 54 65 q 88 46 72 46 l 139 46 q 164 56 153 46 q 175 85 175 65 l 175 226 z "},"య":{"ha":865,"x_min":13,"x_max":775,"o":"m 700 0 l 617 0 q 587 7 601 0 q 557 33 572 14 q 522 6 538 13 q 499 0 506 0 l 353 0 q 297 53 317 0 q 269 12 281 24 q 240 0 257 0 l 88 0 q 35 23 58 0 q 13 83 13 46 l 13 368 q 35 426 13 403 q 88 449 58 449 l 242 449 q 294 426 269 449 q 318 368 318 403 l 318 83 q 328 55 318 64 q 351 46 338 46 l 493 46 q 529 83 529 46 l 529 368 q 493 404 529 404 l 389 404 l 389 449 l 413 449 l 413 560 q 432 609 413 590 q 475 628 451 628 l 571 628 l 571 583 l 485 583 q 464 576 474 583 q 454 551 454 568 l 454 449 l 496 449 q 549 426 525 449 q 572 368 572 403 l 572 96 q 588 55 572 64 q 619 46 603 46 l 697 46 q 722 55 711 46 q 733 83 733 64 l 733 368 q 697 404 733 404 l 689 404 l 689 449 l 700 449 q 751 426 728 449 q 775 367 775 403 l 775 83 q 751 23 775 46 q 700 0 728 0 m 274 368 q 239 404 274 404 l 92 404 q 56 368 56 404 l 56 83 q 92 46 56 46 l 239 46 q 263 55 253 46 q 274 83 274 64 l 274 368 z "},"ర":{"ha":433,"x_min":13,"x_max":335,"o":"m 263 0 l 86 0 q 35 23 58 0 q 13 83 13 46 l 13 368 q 22 406 13 389 q 53 442 31 424 q 40 463 43 454 q 38 481 38 472 l 38 525 l 79 525 l 79 486 q 108 453 79 457 l 125 449 l 186 449 l 186 556 q 206 608 186 589 q 251 628 225 628 l 335 628 l 335 582 l 260 582 q 237 575 246 582 q 228 549 228 568 l 228 449 l 260 449 q 311 426 288 449 q 335 368 335 403 l 335 83 q 326 42 335 58 q 305 17 317 26 q 281 3 293 7 q 263 0 268 0 m 292 368 q 281 396 292 388 q 257 404 271 404 l 90 404 q 56 368 56 404 l 56 83 q 90 46 56 46 l 257 46 q 281 55 271 46 q 292 83 292 64 l 292 368 z "},"ఱ":{"ha":514,"x_min":13,"x_max":433,"o":"m 357 0 l 260 0 q 215 21 236 0 q 194 5 204 10 q 176 0 183 0 l 88 0 q 35 23 58 0 q 13 85 13 46 l 13 371 q 35 433 13 410 q 88 456 58 456 l 124 456 q 176 433 153 456 q 200 371 200 410 l 200 319 q 176 257 200 279 q 124 235 153 235 l 56 235 l 56 85 q 66 56 56 65 q 90 46 76 46 l 156 46 q 193 85 193 46 l 193 99 l 236 99 l 236 85 q 247 56 236 65 q 271 46 257 46 l 354 46 q 379 56 368 46 q 390 85 390 65 l 390 372 q 354 410 390 410 l 325 410 q 292 372 292 410 l 292 203 l 314 203 l 314 156 l 101 156 l 101 201 l 249 201 l 249 371 q 272 433 249 410 q 322 456 294 456 l 357 456 q 410 433 386 456 q 433 371 433 410 l 433 85 q 410 23 433 46 q 357 0 386 0 m 157 372 q 121 410 157 410 l 90 410 q 56 372 56 410 l 56 281 l 121 281 q 157 319 157 281 l 157 372 z "},"ల":{"ha":485,"x_min":13,"x_max":392,"o":"m 317 0 l 88 0 q 35 23 58 0 q 13 85 13 46 l 13 371 q 35 433 13 410 q 88 456 58 456 l 147 456 q 199 433 175 456 q 224 371 224 410 l 224 286 q 199 224 224 247 q 147 201 175 201 l 56 201 l 56 85 q 66 56 56 65 q 90 46 76 46 l 314 46 q 339 56 329 46 q 349 85 349 65 l 349 372 q 314 410 349 410 l 313 410 l 313 456 l 317 456 q 368 433 344 456 q 392 371 392 410 l 392 85 q 368 23 392 46 q 317 0 344 0 m 181 372 q 169 401 181 392 q 144 410 158 410 l 90 410 q 56 372 56 410 l 56 246 l 144 246 q 170 256 160 246 q 181 286 181 267 l 181 372 z "},"ళ":{"ha":497,"x_min":13,"x_max":404,"o":"m 338 568 q 317 560 326 568 q 307 536 307 553 l 307 450 l 326 450 q 380 427 357 450 q 403 368 403 404 l 403 254 q 382 204 403 224 q 338 176 361 185 q 345 158 343 164 q 347 149 347 153 l 347 82 q 324 23 347 46 q 257 0 301 0 l 154 0 q 102 21 122 0 q 82 82 82 42 l 82 135 q 82 149 82 142 q 88 171 82 156 q 63 180 76 172 q 39 201 50 188 q 20 233 28 214 q 13 278 13 253 l 13 367 q 35 426 13 403 q 85 450 57 450 l 122 450 q 156 442 142 450 q 178 424 169 435 q 192 401 188 414 q 196 379 196 389 l 196 340 q 188 310 196 322 q 170 290 181 297 q 147 278 160 282 q 126 275 135 275 l 58 275 q 68 228 58 239 q 93 218 78 218 l 319 218 q 346 226 332 218 q 360 261 360 233 l 360 368 q 324 404 360 404 l 244 404 l 244 450 l 265 450 l 265 542 q 285 592 265 574 q 328 611 304 611 l 404 611 l 404 568 l 338 568 m 154 381 q 145 399 154 393 q 126 404 136 404 l 83 404 q 56 376 56 404 l 56 353 q 60 333 56 343 q 85 324 65 324 l 124 324 q 154 350 154 324 l 154 381 m 304 131 q 292 165 304 154 q 265 175 281 175 l 161 175 q 135 167 146 175 q 124 135 124 160 l 124 83 q 134 53 124 60 q 160 46 144 46 l 267 46 q 304 88 304 46 l 304 131 z "},"ఴ":{"ha":531,"x_min":13,"x_max":447,"o":"m 371 0 l 274 0 q 229 21 250 0 q 208 5 218 10 q 190 0 197 0 l 88 0 q 35 23 58 0 q 13 85 13 46 l 13 371 q 35 433 13 410 q 88 456 58 456 l 124 456 q 176 433 153 456 q 200 371 200 410 l 200 319 q 176 257 200 279 q 124 235 153 235 l 56 235 l 56 85 q 66 56 56 65 q 90 46 76 46 l 169 46 q 207 85 207 46 l 207 128 l 250 128 l 250 85 q 260 56 250 65 q 285 46 271 46 l 368 46 q 394 60 383 46 q 404 85 404 74 l 404 236 l 335 236 q 283 258 306 236 q 260 321 260 281 l 260 371 q 283 434 260 411 q 335 457 306 457 l 369 457 q 423 433 399 457 q 447 371 447 410 l 447 86 q 426 25 447 50 q 371 0 406 0 m 404 372 q 367 411 404 411 l 338 411 q 301 372 301 411 l 301 319 q 338 282 301 282 l 404 282 l 404 372 m 157 372 q 121 410 157 410 l 90 410 q 56 372 56 410 l 56 281 l 121 281 q 157 319 157 281 l 157 372 z "},"వ":{"ha":481,"x_min":11,"x_max":386,"o":"m 311 0 l 253 0 q 196 28 224 0 q 147 0 168 0 l 85 0 q 34 24 57 0 q 11 85 11 47 l 11 225 q 34 283 11 260 q 85 307 57 307 l 142 307 q 193 283 169 307 q 217 225 217 260 l 217 85 q 256 46 217 46 l 308 46 q 333 56 324 46 q 343 85 343 65 l 343 369 q 308 407 343 407 l 13 407 l 13 451 l 119 451 l 119 543 q 142 604 119 581 q 194 628 165 628 l 344 628 l 344 582 l 197 582 q 163 543 163 582 l 163 451 l 311 451 q 363 428 339 451 q 386 368 386 404 l 386 85 q 363 24 386 47 q 311 0 339 0 m 175 226 q 164 254 175 246 q 139 263 153 263 l 88 263 q 54 226 54 263 l 54 85 q 63 56 54 65 q 88 46 72 46 l 139 46 q 164 56 153 46 q 175 85 175 65 l 175 226 z "},"శ":{"ha":483,"x_min":13,"x_max":394,"o":"m 247 567 q 226 559 236 567 q 217 535 217 551 l 217 450 l 324 450 q 369 429 349 450 q 390 376 390 408 l 390 328 q 385 308 390 318 q 368 282 379 299 q 390 232 390 260 l 390 75 q 369 21 390 42 q 324 0 349 0 l 217 0 q 172 21 192 0 q 151 75 151 42 l 151 221 q 153 236 151 228 q 161 258 154 244 l 85 258 q 56 225 56 258 l 56 56 l 13 56 l 13 232 q 33 282 13 263 q 76 301 53 301 l 315 301 q 341 315 335 301 q 347 338 347 329 l 347 372 q 317 404 347 404 l 124 404 l 124 450 l 175 450 l 175 540 q 194 591 175 572 q 238 610 214 610 l 394 610 l 394 567 l 247 567 m 347 225 q 317 258 347 258 l 226 258 q 193 225 193 258 l 193 78 q 226 46 193 46 l 317 46 q 347 78 347 46 l 347 225 z "},"ష":{"ha":490,"x_min":13,"x_max":436,"o":"m 231 582 q 203 551 203 582 l 203 481 q 184 423 203 443 q 136 403 165 403 l 14 403 l 14 449 l 126 449 q 160 481 160 449 l 160 547 q 179 608 160 588 q 226 628 199 628 l 329 628 l 329 582 l 231 582 m 414 -76 q 381 -65 394 -76 q 368 -39 368 -53 l 368 -1 l 251 -1 q 226 5 240 -1 q 197 26 213 11 q 147 -1 169 -1 l 86 -1 q 35 21 58 -1 q 13 83 13 43 l 13 222 q 35 282 13 261 q 86 303 58 303 l 142 303 q 195 282 172 303 q 218 222 218 261 l 218 83 q 228 53 218 64 q 253 43 238 43 l 332 43 q 368 83 368 43 l 368 367 q 332 403 368 403 l 314 403 l 314 449 l 335 449 q 388 425 364 449 q 411 367 411 401 q 411 264 411 324 q 410 149 411 204 q 410 52 410 93 q 410 6 410 11 q 414 -24 410 -10 q 436 -40 418 -37 l 436 -76 l 414 -76 m 175 222 q 140 260 175 260 l 92 260 q 56 222 56 260 l 56 83 q 92 43 56 43 l 140 43 q 165 53 156 43 q 175 83 175 64 l 175 222 z "},"స":{"ha":499,"x_min":13,"x_max":410,"o":"m 231 582 q 203 550 203 582 l 203 479 q 184 422 203 440 q 136 403 165 403 l 14 403 l 14 447 l 126 447 q 160 479 160 447 l 160 547 q 179 608 160 588 q 226 628 199 628 l 329 628 l 329 582 l 231 582 m 335 -4 l 249 -4 q 197 19 219 -4 q 174 81 174 43 l 174 206 q 163 232 174 224 q 140 240 151 240 l 92 240 q 56 206 56 240 l 56 -4 l 13 -4 l 13 208 q 34 266 13 244 q 86 288 56 288 l 140 288 q 192 266 168 288 q 217 208 217 244 l 217 81 q 227 51 217 61 q 251 42 238 42 l 332 42 q 357 51 346 42 q 368 81 368 61 l 368 367 q 357 394 368 386 q 332 403 346 403 l 328 403 l 328 447 l 335 447 q 388 424 367 447 q 410 367 410 401 l 410 81 q 386 19 410 43 q 335 -4 363 -4 z "},"హ":{"ha":763,"x_min":13,"x_max":678,"o":"m 231 582 q 203 550 203 582 l 203 479 q 184 422 203 440 q 136 403 165 403 l 14 403 l 14 447 l 126 447 q 160 479 160 447 l 160 547 q 179 608 160 588 q 226 628 199 628 l 329 628 l 329 582 l 231 582 m 600 -1 l 565 -1 q 513 22 538 -1 q 489 83 489 46 l 489 222 q 513 281 489 257 q 565 304 536 304 l 635 304 l 635 371 q 623 399 635 390 q 597 408 611 408 l 410 408 q 417 383 415 392 q 418 369 418 374 l 418 85 q 394 24 418 47 q 340 0 369 0 l 256 0 q 231 6 244 0 q 201 28 217 13 q 173 6 186 13 q 150 0 160 0 l 89 0 q 36 24 60 0 q 13 85 13 47 l 13 226 q 35 285 13 263 q 89 307 58 307 l 144 307 q 199 285 175 307 q 222 226 222 263 l 222 85 q 258 46 222 46 l 338 46 q 363 56 351 46 q 374 85 374 65 l 374 371 q 363 399 374 390 q 338 408 351 408 l 328 408 l 328 454 l 340 454 l 600 454 q 653 430 629 454 q 678 369 678 406 l 678 83 q 653 22 678 46 q 600 -1 629 -1 m 635 260 l 568 260 q 544 251 554 260 q 533 222 533 242 l 533 85 q 544 56 533 65 q 568 46 554 46 l 597 46 q 623 56 611 46 q 635 85 635 65 l 635 260 m 179 225 q 142 263 179 263 l 92 263 q 56 225 56 263 l 56 85 q 92 46 56 46 l 142 46 q 179 85 179 46 l 179 225 z "},"ఽ":{"ha":714,"x_min":15,"x_max":653,"o":"m 93 0 q 39 23 63 0 q 15 82 15 46 l 15 131 l 15 143 q 17 155 15 150 q 22 167 19 160 q 44 192 29 181 q 88 208 60 204 l 276 233 q 306 247 296 236 q 315 285 315 257 l 315 393 q 275 431 315 431 l 243 431 l 243 367 q 219 308 243 331 q 164 285 196 285 l 129 285 q 75 308 99 285 q 51 367 51 331 l 51 393 q 75 451 51 429 q 129 474 99 474 l 279 474 q 334 451 310 474 q 358 392 358 428 l 358 278 q 335 218 358 239 q 276 193 313 197 l 96 167 q 57 131 57 163 l 57 82 q 96 43 57 43 l 653 44 l 653 0 l 93 0 m 203 431 l 132 431 q 93 393 93 431 l 93 367 q 132 329 93 329 l 163 329 q 190 338 178 329 q 203 367 203 347 l 203 431 z "},"ా":{"ha":288,"x_min":-453,"x_max":193,"o":"m 115 -1 l 81 -1 q 30 22 53 -1 q 7 83 7 44 l 7 222 q 30 283 7 261 q 81 306 53 306 l 150 306 l 150 382 q 113 418 150 418 l -453 418 l -453 464 l 115 464 q 169 441 146 464 q 193 379 193 418 l 193 83 q 169 22 193 44 q 115 -1 146 -1 m 150 261 l 85 261 q 50 224 50 261 l 50 85 q 60 56 50 65 q 85 46 71 46 l 113 46 q 150 85 150 46 l 150 261 z "},"ి":{"ha":17,"x_min":-347,"x_max":-94,"o":"m -169 393 l -262 393 l -262 439 l -167 439 q -140 446 -147 439 q -133 468 -133 453 l -133 571 q -147 610 -133 597 q -200 617 -160 622 l -196 553 q -211 508 -196 528 q -233 496 -218 501 q -271 490 -247 490 q -325 510 -303 490 q -347 574 -347 529 q -326 635 -347 614 q -268 657 -306 657 l -160 657 q -111 635 -128 657 q -94 586 -94 614 l -94 469 q -113 415 -94 438 q -169 393 -132 393 m -235 615 l -274 615 q -299 606 -290 615 q -308 574 -308 597 q -301 543 -308 553 q -274 533 -293 533 q -241 539 -247 533 q -235 558 -235 544 l -235 615 z "},"ీ":{"ha":17,"x_min":-347,"x_max":-74,"o":"m -111 690 q -125 727 -115 718 q -153 736 -135 736 q -187 725 -178 736 q -197 692 -197 714 l -197 649 l -160 649 q -111 628 -128 649 q -94 581 -94 608 l -94 468 q -113 413 -94 433 q -169 392 -132 392 l -262 392 l -262 436 l -168 436 q -141 442 -149 436 q -133 467 -133 447 l -133 567 q -146 602 -133 590 q -200 611 -158 614 l -194 547 q -210 503 -193 521 q -271 485 -226 485 q -325 505 -303 485 q -347 569 -347 525 q -268 649 -347 649 l -237 649 l -237 711 q -219 758 -237 739 q -158 776 -201 776 l -124 776 q -83 762 -93 776 q -74 715 -74 747 l -74 690 l -111 690 m -235 607 l -274 607 q -300 598 -293 607 q -307 569 -307 589 q -301 540 -307 550 q -274 529 -294 529 q -242 534 -249 529 q -235 553 -235 539 l -235 607 z "},"ు":{"ha":183,"x_min":-96,"x_max":90,"o":"m 17 0 l -40 0 q -96 29 -69 0 l -76 69 q -56 48 -64 53 q -37 43 -49 43 l 13 43 q 53 85 53 43 l 53 372 q 13 413 53 413 l -8 413 l -8 456 l 17 456 q 67 433 44 456 q 90 371 90 411 l 90 85 q 67 22 90 44 q 17 0 44 0 z "},"ూ":{"ha":460,"x_min":-96,"x_max":365,"o":"m 289 0 l 256 0 q 206 22 228 0 q 183 85 183 44 l 183 228 q 206 288 183 267 q 256 308 229 308 l 325 308 l 325 372 q 288 413 325 413 l 86 413 q 94 380 93 389 q 94 360 94 371 l 94 85 q 71 23 94 46 q 18 0 47 0 l -39 0 q -68 7 -56 0 q -96 29 -81 14 l -75 71 q -55 47 -62 51 q -36 43 -47 43 l 15 43 q 54 85 54 43 l 54 357 q 49 390 54 378 q 25 413 44 401 l -1 413 l -1 456 l 289 456 q 343 433 321 456 q 365 371 365 411 l 365 85 q 343 22 365 44 q 289 0 321 0 m 325 267 l 260 267 q 225 226 225 267 l 225 85 q 260 43 225 43 l 288 43 q 325 85 325 43 l 325 267 z "},"ృ":{"ha":203,"x_min":-193,"x_max":110,"o":"m 35 -387 l -114 -387 q -173 -367 -153 -387 q -193 -317 -193 -346 l -193 -136 q -174 -89 -193 -110 q -122 -68 -154 -68 l -78 -68 q -26 -90 -46 -68 q -7 -136 -7 -111 l -7 -189 q -26 -238 -7 -217 q -78 -260 -46 -260 l -147 -260 l -147 -301 q -133 -332 -147 -322 q -96 -342 -119 -342 l 31 -342 q 56 -331 44 -342 q 67 -306 67 -321 l 67 285 q 60 308 67 297 q 33 318 53 318 l 3 318 l 3 364 l 38 364 q 90 342 69 364 q 110 293 110 319 l 110 -306 q 86 -365 110 -342 q 35 -387 63 -387 m -51 -146 q -58 -124 -51 -135 q -83 -112 -64 -112 l -117 -112 q -142 -122 -132 -112 q -151 -146 -151 -131 l -151 -215 l -83 -215 q -58 -203 -64 -215 q -51 -181 -51 -192 l -51 -146 z "},"ౄ":{"ha":449,"x_min":-193,"x_max":371,"o":"m 293 -83 l 258 -83 q 206 -60 229 -83 q 183 -1 183 -37 l 183 136 q 206 194 183 172 q 258 217 228 217 l 326 217 l 326 283 q 290 318 326 318 l 104 318 q 110 300 110 301 l 110 293 l 110 -306 q 86 -365 110 -342 q 35 -387 63 -387 l -114 -387 q -173 -367 -153 -387 q -193 -317 -193 -346 l -193 -136 q -174 -89 -193 -110 q -122 -68 -154 -68 l -78 -68 q -26 -90 -46 -68 q -7 -136 -7 -111 l -7 -189 q -26 -238 -7 -217 q -78 -260 -46 -260 l -147 -260 l -147 -301 q -133 -332 -147 -322 q -96 -342 -119 -342 l 31 -342 q 56 -331 44 -342 q 67 -306 67 -321 l 67 285 q 60 308 67 297 q 33 318 53 318 l 3 318 l 3 364 l 38 364 l 293 364 q 347 341 324 364 q 371 282 371 318 l 371 -1 q 347 -60 371 -37 q 293 -83 324 -83 m 328 172 l 264 172 q 228 135 228 172 l 228 -1 q 264 -40 228 -40 l 290 -40 q 328 -1 328 -40 l 328 172 m -51 -146 q -58 -124 -51 -135 q -83 -112 -64 -112 l -117 -112 q -142 -122 -132 -112 q -151 -146 -151 -131 l -151 -215 l -83 -215 q -58 -203 -64 -215 q -51 -181 -51 -192 l -51 -146 z "},"ె":{"ha":17,"x_min":-458,"x_max":-92,"o":"m -158 394 l -224 394 l -224 436 l -164 436 q -142 446 -153 436 q -132 475 -132 456 l -132 508 q -164 549 -132 549 l -458 549 l -458 592 l -158 592 q -111 569 -131 592 q -92 515 -92 547 l -92 467 q -111 415 -92 435 q -158 394 -131 394 z "},"ే":{"ha":17,"x_min":-460,"x_max":-46,"o":"m -86 626 l -85 635 q -122 671 -89 671 l -140 671 q -165 662 -154 671 q -176 633 -176 653 l -176 582 l -158 582 q -112 563 -132 582 q -92 508 -92 543 l -92 465 q -112 413 -92 433 q -158 393 -132 393 l -225 393 l -225 435 l -167 435 q -132 472 -132 435 l -132 503 q -167 540 -132 540 l -460 540 l -460 582 l -217 582 l -217 639 q -202 697 -217 679 q -153 714 -187 714 l -108 714 q -60 698 -74 714 q -46 639 -46 682 l -46 626 l -86 626 z "},"ై":{"ha":24,"x_min":-490,"x_max":-29,"o":"m -168 406 l -236 406 l -236 453 l -176 453 q -151 464 -161 453 q -142 494 -142 475 l -142 528 q -151 560 -142 550 q -176 571 -161 571 l -460 571 l -460 617 l -168 617 q -121 595 -142 617 q -100 535 -100 574 l -100 485 q -120 427 -100 449 q -168 406 -140 406 m -415 -272 q -467 -245 -444 -272 q -490 -179 -490 -218 l -490 -150 q -467 -84 -490 -110 q -415 -58 -444 -58 l -383 -58 q -332 -84 -354 -58 q -310 -150 -310 -110 l -310 -224 l -29 -224 l -29 -272 l -415 -272 m -350 -149 q -360 -118 -350 -131 q -386 -106 -371 -106 l -412 -106 q -439 -117 -428 -106 q -450 -150 -450 -128 l -450 -181 q -438 -214 -450 -204 q -412 -224 -426 -224 l -350 -224 l -350 -149 z "},"ొ":{"ha":292,"x_min":-486,"x_max":194,"o":"m 118 124 l 86 124 q 34 147 57 124 q 11 208 11 169 l 11 350 q 33 411 11 389 q 86 433 56 433 l 154 433 l 154 496 q 115 539 154 539 l 1 539 q -24 529 -12 539 q -36 496 -36 519 l -36 467 l -78 467 l -78 497 q -89 530 -78 521 q -114 539 -100 539 l -410 539 q -444 500 -444 539 l -444 488 q -439 462 -444 472 q -410 451 -433 451 l -396 451 l -361 451 l -361 410 l -396 410 l -424 410 q -469 421 -451 410 q -486 460 -486 432 l -486 521 q -471 568 -486 553 q -437 583 -456 583 l -115 583 q -90 577 -104 583 q -57 547 -76 571 q -1 582 -28 578 l 81 583 l 118 583 q 171 560 147 583 q 194 496 194 536 l 194 208 q 171 147 194 169 q 118 124 147 124 m 154 392 l 90 392 q 51 353 51 392 l 51 207 q 63 174 51 183 q 90 165 75 165 l 115 165 q 154 207 154 165 l 154 392 z "},"ో":{"ha":288,"x_min":-486,"x_max":201,"o":"m 158 638 q 150 667 157 656 q 124 679 143 679 l 82 679 q 51 643 51 674 l 51 606 l 51 578 l 118 578 q 171 555 147 578 q 194 492 194 532 l 194 207 q 171 147 194 169 q 118 124 147 124 l 86 124 q 34 147 57 124 q 11 207 11 169 l 11 347 q 34 407 11 383 q 86 431 57 431 l 154 431 l 154 492 q 115 533 154 533 l 1 533 q -24 523 -12 533 q -36 492 -36 513 l -36 461 l -78 461 l -78 493 q -89 525 -78 517 q -114 533 -100 533 l -410 533 q -444 496 -444 533 l -444 483 q -439 458 -444 468 q -410 447 -433 447 l -396 447 l -362 447 l -362 406 l -396 406 l -424 406 q -469 417 -451 406 q -486 454 -486 429 l -486 515 q -471 563 -486 547 q -437 578 -456 578 l -115 578 q -90 572 -104 578 q -57 543 -76 567 q -26 567 -42 558 q 11 579 -10 575 l 11 600 l 11 649 q 25 706 11 689 q 74 722 39 722 l 138 722 q 188 708 174 722 q 201 650 201 694 l 201 638 l 158 638 m 154 388 l 90 388 q 51 350 51 388 l 51 206 q 63 174 51 182 q 90 165 75 165 l 115 165 q 154 206 154 165 l 154 388 z "},"ౌ":{"ha":265,"x_min":-312,"x_max":172,"o":"m 97 56 l 63 56 q 10 78 33 56 q -14 139 -14 101 l -14 278 q 9 340 -14 318 q 63 361 32 361 l 131 361 l 131 508 q 119 538 131 528 q 94 547 108 547 l -75 547 l -75 532 q -81 474 -75 496 q -105 438 -89 454 q -143 421 -121 421 l -264 421 l -264 463 l -161 463 q -125 483 -135 463 q -115 532 -115 503 l -115 547 l -312 547 l -312 590 l 97 590 q 149 567 125 590 q 172 507 172 544 l 172 139 q 149 78 172 101 q 97 56 125 56 m 131 319 l 65 319 q 28 278 28 319 l 28 139 q 65 99 28 99 l 94 99 q 119 108 108 99 q 131 139 131 118 l 131 319 z "},"్":{"ha":17,"x_min":-496,"x_max":-164,"o":"m -421 686 q -456 647 -456 686 l -456 619 q -421 582 -456 582 l -235 582 l -235 539 l -421 539 q -456 501 -456 539 l -456 472 q -421 435 -456 435 l -307 435 l -307 393 l -429 393 q -476 412 -456 393 q -496 463 -496 431 l -496 510 q -475 560 -496 529 l -483 571 q -496 608 -496 592 l -496 654 q -476 708 -496 689 q -429 728 -456 728 l -164 728 l -164 686 l -421 686 z "},"ౕ":{"ha":17,"x_min":-275,"x_max":-97,"o":"m -204 556 q -229 544 -219 556 q -239 514 -239 533 l -239 410 l -275 410 l -275 521 q -256 578 -275 557 q -211 599 -236 599 l -97 599 l -97 556 l -204 556 z "},"ౖ":{"ha":17,"x_min":-504,"x_max":-25,"o":"m -429 -231 q -481 -206 -458 -231 q -504 -143 -504 -181 l -504 -115 q -481 -55 -504 -79 q -429 -31 -458 -31 l -397 -31 q -346 -55 -368 -31 q -324 -115 -324 -79 l -324 -186 l -25 -186 l -25 -231 l -429 -231 m -364 -114 q -375 -87 -364 -99 q -400 -75 -386 -75 l -426 -75 q -464 -115 -464 -75 l -464 -146 q -452 -176 -464 -167 q -426 -186 -440 -186 l -364 -186 l -364 -114 z "},"ౘ":{"ha":538,"x_min":13,"x_max":456,"o":"m 379 688 l 78 688 l 78 731 l 274 731 l 274 790 q 296 847 274 825 q 349 868 318 868 l 379 868 q 431 846 407 868 q 456 790 456 824 l 456 767 q 431 710 456 733 q 379 688 407 688 m 379 0 l 310 0 l 303 0 q 281 6 292 0 q 256 25 271 13 q 200 0 231 0 l 133 0 q 88 20 108 0 q 68 71 68 40 l 68 231 l 74 256 l 13 256 l 13 299 l 154 299 l 154 256 l 143 256 q 120 247 129 256 q 111 222 111 238 l 111 76 q 143 44 111 44 l 201 44 q 228 55 221 44 q 235 76 235 65 l 235 128 l 278 128 l 278 75 q 310 44 278 44 l 369 44 q 391 51 381 44 q 401 78 401 58 l 401 367 q 369 400 401 400 l 275 400 l 181 400 l 156 400 q 106 419 129 400 q 82 467 82 438 l 82 504 l 128 504 l 128 493 q 172 444 128 444 l 181 444 l 218 444 l 219 553 q 242 602 221 583 q 286 621 263 621 l 444 621 l 444 579 l 297 579 q 274 572 283 579 q 264 544 264 564 l 264 444 l 379 444 q 425 426 406 444 q 444 372 444 407 l 444 71 q 424 19 444 39 q 379 0 404 0 m 413 790 q 401 819 413 810 q 376 828 390 828 l 350 828 q 326 816 335 828 q 317 790 317 804 l 317 731 l 376 731 q 401 738 390 731 q 413 765 413 746 l 413 790 z "},"ౙ":{"ha":482,"x_min":13,"x_max":388,"o":"m 310 535 l 22 535 l 22 575 l 204 575 l 204 638 q 226 694 204 672 q 279 715 249 715 l 310 715 q 362 693 338 715 q 386 638 386 671 l 386 614 q 362 557 386 579 q 310 535 338 535 m 321 0 l 251 0 q 235 3 249 0 q 199 26 222 7 q 173 6 185 13 q 142 0 161 0 l 78 0 q 33 20 53 0 q 13 72 13 40 l 13 199 q 32 252 13 233 q 78 271 51 271 l 146 271 q 169 281 160 271 q 179 304 179 290 l 179 368 q 169 394 179 388 q 146 401 160 401 l 85 401 q 56 368 56 401 l 56 343 l 13 343 l 13 374 q 33 426 13 406 q 78 447 53 447 l 156 447 q 200 426 179 447 q 221 374 221 406 l 221 307 q 231 282 221 290 q 251 274 240 274 l 311 274 q 343 307 343 274 l 343 368 q 333 394 343 388 q 311 401 322 401 l 300 401 l 300 447 l 319 447 q 365 426 344 447 q 386 374 386 406 l 386 303 q 366 251 386 271 q 319 232 346 232 l 253 232 q 250 231 250 232 l 249 231 l 246 231 q 224 237 235 232 q 199 256 213 242 q 172 236 183 243 q 142 229 160 229 l 85 229 q 56 193 56 229 l 56 78 q 85 46 56 46 l 143 46 q 168 56 158 46 q 178 76 178 65 l 178 101 l 219 101 l 219 76 q 251 46 219 46 l 314 46 q 344 78 344 46 l 344 160 l 388 160 l 388 72 q 367 20 388 40 q 321 0 346 0 m 343 638 q 332 665 343 657 q 307 672 321 672 l 281 672 q 256 662 265 672 q 247 638 247 651 l 247 575 l 307 575 q 332 584 321 575 q 343 613 343 593 l 343 638 z "},"ౠ":{"ha":1117,"x_min":13,"x_max":1036,"o":"m 960 0 l 925 0 q 874 22 897 0 q 850 83 850 44 l 850 222 q 873 283 850 261 q 924 306 896 306 l 993 306 l 993 372 q 956 410 993 410 l 761 410 q 768 384 767 393 q 769 371 769 375 l 769 85 q 747 22 769 44 q 696 0 724 0 l 626 0 q 597 7 611 0 q 565 33 582 14 q 533 7 547 14 q 507 0 519 0 l 438 0 q 408 7 425 0 q 376 33 392 14 q 344 7 358 14 q 317 0 331 0 l 250 0 q 226 6 239 0 q 201 29 214 13 q 176 5 189 10 q 147 0 163 0 l 89 0 q 35 23 58 0 q 13 85 13 46 l 13 194 q 35 258 13 235 q 88 281 58 281 l 142 281 q 179 318 179 281 l 179 372 q 142 410 179 410 l 90 410 q 56 372 56 410 l 56 351 l 13 351 l 13 371 q 35 433 13 410 q 88 456 58 456 l 144 456 q 197 433 174 456 q 221 371 221 410 l 221 319 q 197 257 221 279 q 144 235 174 235 l 90 235 q 66 224 76 235 q 56 194 56 214 l 56 85 q 66 56 56 65 q 90 46 76 46 l 142 46 q 179 85 179 46 l 179 118 l 221 118 l 221 85 q 257 46 221 46 l 313 46 q 338 56 326 46 q 349 85 349 65 l 349 372 q 313 410 349 410 l 292 410 l 292 456 l 315 456 q 367 433 343 456 q 392 371 392 410 l 392 111 q 406 63 392 79 q 439 47 419 47 l 503 47 q 528 57 517 47 q 539 86 539 67 l 539 374 q 503 411 539 411 l 494 411 l 494 457 l 506 457 q 557 434 533 457 q 581 372 581 411 l 581 110 q 594 62 581 78 q 628 46 608 46 l 692 46 q 717 56 706 46 q 728 85 728 65 l 728 372 q 692 410 728 410 l 683 410 l 683 456 l 694 456 l 958 456 q 1013 433 989 456 q 1036 371 1036 410 l 1036 83 q 1013 22 1036 44 q 960 0 990 0 m 993 261 l 928 261 q 893 224 893 261 l 893 85 q 903 56 893 65 q 928 46 914 46 l 956 46 q 993 85 993 46 l 993 261 z "},"ౡ":{"ha":756,"x_min":14,"x_max":675,"o":"m 597 -225 l 535 -225 q 483 -202 507 -225 q 460 -142 460 -179 l 460 -135 q 483 -76 460 -99 q 535 -53 507 -53 l 632 -53 l 632 -31 q 594 7 632 7 l 393 7 l 393 -111 q 370 -172 393 -147 q 318 -196 347 -196 l 210 -196 q 158 -172 181 -196 q 135 -110 135 -149 l 135 106 q 158 163 135 143 q 208 190 181 183 l 311 217 q 342 233 331 222 q 353 260 353 243 l 353 369 q 314 411 353 411 l 263 411 q 225 369 225 411 l 225 351 l 185 351 l 185 369 q 173 401 185 390 q 147 411 161 411 l 90 411 q 53 369 53 411 l 53 289 q 90 249 53 249 l 96 249 l 96 207 l 88 207 q 36 229 58 207 q 14 290 14 251 l 14 369 q 36 433 14 410 q 88 456 58 456 l 153 456 q 176 451 164 456 q 203 433 188 447 q 233 452 221 449 q 257 456 246 456 l 318 456 q 370 433 347 456 q 393 369 393 410 l 393 260 q 368 199 393 219 q 319 174 343 179 l 215 147 q 188 128 200 143 q 175 94 175 114 l 175 -111 q 213 -151 175 -151 l 314 -151 q 353 -111 353 -151 l 353 -6 l 353 51 l 597 51 q 651 29 628 51 q 675 -32 675 7 l 675 -142 q 651 -202 675 -179 q 597 -225 628 -225 m 632 -96 l 539 -96 q 504 -133 504 -96 l 504 -140 q 515 -169 504 -160 q 539 -178 525 -178 l 594 -178 q 632 -140 632 -178 l 632 -96 z "},"ౢ":{"ha":13,"x_min":-435,"x_max":-96,"o":"m -119 -318 q -171 -343 -140 -336 l -276 -371 q -289 -375 -285 -374 q -295 -376 -292 -376 q -301 -379 -299 -376 q -315 -390 -311 -382 q -319 -410 -319 -399 l -319 -561 q -307 -591 -319 -581 q -279 -601 -294 -601 l -201 -601 q -162 -561 -162 -601 l -162 -454 l -122 -454 l -122 -560 q -144 -621 -122 -597 q -199 -644 -167 -644 l -282 -644 q -337 -621 -314 -644 q -361 -560 -361 -597 l -361 -412 q -339 -357 -361 -381 q -285 -326 -317 -333 l -178 -300 q -165 -296 -171 -297 q -154 -290 -160 -294 l -149 -286 q -136 -260 -136 -279 l -136 -161 q -148 -128 -136 -137 q -175 -119 -160 -119 l -201 -119 q -242 -161 -242 -119 l -242 -187 l -283 -187 l -283 -161 q -321 -119 -283 -119 l -353 -119 q -393 -161 -393 -119 l -393 -215 q -383 -237 -393 -232 q -353 -243 -374 -243 l -350 -243 l -350 -285 l -357 -285 q -383 -281 -369 -285 q -408 -268 -396 -276 q -427 -247 -419 -260 q -435 -214 -435 -233 l -435 -161 q -410 -101 -435 -125 q -357 -76 -385 -76 l -315 -76 q -291 -83 -301 -76 q -264 -104 -281 -89 q -233 -83 -247 -89 q -207 -76 -219 -76 l -172 -76 q -119 -100 -143 -76 q -96 -161 -96 -124 l -96 -260 q -119 -318 -96 -299 z "},"ౣ":{"ha":154,"x_min":-435,"x_max":106,"o":"m 40 -658 l 6 -658 q -49 -634 -25 -658 q -74 -574 -74 -610 l -74 -558 q -62 -526 -74 -543 q -26 -507 -50 -510 l -26 -483 l -122 -483 l -122 -560 q -144 -620 -122 -596 q -199 -644 -167 -644 l -282 -644 q -337 -620 -314 -644 q -361 -560 -361 -596 l -361 -412 q -339 -356 -361 -378 q -285 -326 -317 -333 l -178 -300 l -161 -294 q -157 -291 -158 -292 q -153 -289 -156 -290 q -149 -286 -150 -286 q -136 -260 -136 -279 l -136 -161 q -148 -128 -136 -137 q -175 -119 -160 -119 l -201 -119 q -242 -161 -242 -119 l -242 -187 l -283 -187 l -283 -161 q -321 -119 -283 -119 l -353 -119 q -393 -161 -393 -119 l -393 -215 q -383 -237 -393 -232 q -353 -243 -374 -243 l -350 -243 l -350 -285 l -357 -285 q -383 -281 -369 -285 q -408 -268 -396 -276 q -427 -247 -419 -260 q -435 -214 -435 -233 l -435 -161 q -410 -101 -435 -125 q -357 -76 -385 -76 l -315 -76 q -291 -83 -301 -76 q -264 -104 -281 -89 q -233 -83 -247 -89 q -207 -76 -219 -76 l -172 -76 q -119 -100 -143 -76 q -96 -161 -96 -124 l -96 -260 q -119 -318 -96 -299 q -171 -343 -140 -336 l -276 -371 q -289 -374 -285 -374 q -295 -375 -292 -375 q -301 -378 -299 -375 q -319 -410 -319 -386 l -319 -561 q -307 -591 -319 -581 q -279 -601 -294 -601 l -201 -601 q -162 -561 -162 -601 l -162 -496 l -162 -440 l -110 -440 l 28 -440 q 53 -442 39 -440 q 78 -449 67 -443 q 98 -466 90 -454 q 106 -499 106 -478 l 106 -574 q 89 -634 106 -610 q 40 -658 72 -658 m 67 -525 l 8 -525 q -18 -534 -7 -525 q -29 -567 -29 -543 l -29 -572 q 10 -614 -29 -614 l 39 -614 q 59 -605 51 -614 q 67 -572 67 -596 l 67 -525 z "},"౦":{"ha":494,"x_min":13,"x_max":383,"o":"m 325 0 l 65 0 q 30 17 47 0 q 13 63 13 33 l 13 456 q 30 498 13 482 q 65 514 47 514 l 325 514 q 366 498 349 514 q 383 456 383 482 l 383 63 q 366 17 383 35 q 325 0 349 0 m 343 438 q 313 469 343 469 l 85 469 q 53 438 53 469 l 53 76 q 62 50 53 57 q 85 43 71 43 l 313 43 q 343 76 343 43 l 343 438 z "},"౧":{"ha":482,"x_min":13,"x_max":383,"o":"m 326 -1 l 290 -4 l 290 42 l 313 42 q 343 75 343 42 l 343 436 q 313 468 343 468 l 85 468 q 53 436 53 468 l 53 75 q 63 52 53 60 q 85 42 74 44 l 110 39 l 110 -1 l 65 -1 q 30 15 47 -1 q 13 61 13 32 l 13 454 q 30 497 13 481 q 65 513 47 513 l 325 513 q 366 497 349 513 q 383 454 383 481 l 383 61 q 366 17 383 35 q 326 -1 349 0 z "},"౨":{"ha":476,"x_min":13,"x_max":378,"o":"m 304 0 l 86 0 q 38 23 60 0 q 13 94 15 46 l 53 94 q 65 53 56 63 q 89 43 74 43 l 301 43 q 327 53 317 43 q 338 83 338 64 l 338 432 q 327 462 338 451 q 301 472 317 472 l 210 472 l 210 410 q 187 347 210 369 q 136 324 164 324 l 86 324 q 35 347 57 324 q 13 410 13 369 l 13 432 q 35 492 13 468 q 86 515 57 515 l 304 515 q 355 492 332 515 q 378 432 378 469 l 378 83 q 355 23 378 46 q 304 0 332 0 m 169 472 l 89 472 q 53 432 53 472 l 53 408 q 89 368 53 368 l 133 368 q 169 408 169 368 l 169 472 z "},"౩":{"ha":515,"x_min":13,"x_max":390,"o":"m 335 0 l 68 0 q 30 17 47 0 q 13 64 13 35 l 13 161 l 53 161 l 53 75 q 83 43 53 43 l 318 43 q 340 51 329 43 q 350 75 350 58 l 350 200 q 340 224 350 215 q 318 232 329 232 l 129 232 l 129 275 l 318 275 q 350 306 350 275 l 350 438 q 340 462 350 454 q 318 469 329 469 l 82 469 q 53 438 53 469 l 53 350 l 13 350 l 13 450 q 30 496 13 478 q 68 514 47 514 l 335 514 q 374 498 358 514 q 390 450 390 482 l 390 304 q 365 253 390 279 q 387 222 383 233 q 390 204 390 211 l 390 64 q 373 17 390 35 q 335 0 356 0 z "},"౪":{"ha":482,"x_min":13,"x_max":388,"o":"m 322 214 q 326 195 325 201 q 329 186 328 189 q 332 179 332 178 l 332 82 q 309 23 332 46 q 242 0 286 0 l 139 0 q 87 21 107 0 q 67 82 67 42 l 67 167 q 67 183 67 174 q 75 210 68 192 q 29 239 46 221 q 13 289 13 257 l 13 414 q 35 473 13 450 q 86 496 57 496 l 118 496 l 118 453 l 90 453 q 53 414 53 453 l 53 296 q 57 268 53 281 l 58 267 l 60 264 q 71 256 64 258 l 74 254 q 79 253 76 254 l 304 251 q 333 260 319 250 q 347 297 347 269 l 347 415 q 308 454 347 454 l 282 454 l 282 497 l 313 497 q 365 475 342 497 q 388 415 388 453 l 388 289 q 322 214 388 238 m 292 163 q 278 197 292 188 q 250 206 265 206 l 147 206 q 118 199 129 206 q 107 167 107 192 l 107 83 q 119 49 107 56 q 144 43 131 43 l 253 43 q 282 56 272 43 q 292 88 292 68 l 292 163 z "},"౫":{"ha":692,"x_min":13,"x_max":611,"o":"m 561 257 q 571 231 568 242 q 574 211 574 221 l 574 110 q 547 48 574 71 q 488 25 519 25 l 461 25 l 461 68 l 485 68 q 517 78 504 68 q 529 108 529 88 l 529 211 q 521 238 529 226 q 489 253 513 250 l 328 253 l 328 83 q 303 24 328 47 q 251 0 279 0 l 89 0 q 38 23 61 0 q 13 94 15 46 l 54 94 q 67 53 57 63 q 92 43 76 43 l 249 43 q 274 53 263 43 q 286 83 286 64 l 286 432 q 274 462 286 451 q 249 472 263 472 l 92 472 q 67 463 76 472 q 54 421 57 453 l 13 421 q 39 492 17 468 q 89 515 61 515 l 251 515 q 303 492 279 515 q 328 432 328 468 l 328 296 l 488 296 l 531 296 q 560 304 553 296 q 568 328 568 313 l 568 428 l 568 444 l 568 453 q 564 465 569 461 q 556 469 558 469 l 535 469 l 535 408 q 522 367 535 388 q 458 347 508 347 q 400 367 424 347 q 376 432 376 388 q 397 491 376 468 q 461 514 418 514 l 539 514 q 593 492 575 514 q 611 443 611 471 l 611 329 q 600 288 611 304 q 561 257 589 271 m 499 469 l 456 469 q 429 461 438 469 q 421 432 421 453 q 426 401 421 410 q 456 393 432 393 q 489 398 479 393 q 499 417 499 403 l 499 469 z "},"౬":{"ha":575,"x_min":15,"x_max":458,"o":"m 83 0 q 35 21 56 0 q 15 75 15 42 l 15 186 q 19 209 15 197 q 33 236 22 221 q 19 265 22 251 q 15 289 15 278 l 15 389 q 36 440 15 421 q 83 460 57 460 l 306 460 l 306 415 l 90 415 q 57 381 57 415 l 57 296 q 90 258 57 258 l 306 258 l 306 215 l 90 215 q 57 178 57 215 l 57 81 q 90 44 57 44 l 458 44 l 458 0 l 83 0 z "},"౭":{"ha":435,"x_min":13,"x_max":340,"o":"m 265 0 l 86 0 q 35 22 57 0 q 13 85 13 44 l 13 171 q 35 231 13 207 q 86 254 57 254 l 263 254 q 300 293 300 254 l 300 372 q 263 413 300 413 l 88 413 q 63 404 74 413 q 53 372 53 396 l 53 325 l 13 325 l 13 371 q 35 433 13 411 q 86 456 57 456 l 265 456 q 317 433 293 456 q 340 371 340 410 l 340 293 q 317 234 340 257 q 265 211 293 211 l 88 211 q 63 201 72 211 q 53 171 53 190 l 53 85 q 63 52 53 61 q 88 43 74 43 l 263 43 q 300 85 300 43 l 300 129 l 340 129 l 340 85 q 317 23 340 46 q 265 0 293 0 z "},"౮":{"ha":628,"x_min":29,"x_max":551,"o":"m 411 468 l 411 451 l 411 58 q 392 16 411 32 q 356 0 374 0 l 88 0 q 45 16 61 0 q 29 58 29 32 l 29 451 q 47 495 29 478 q 86 514 64 513 l 125 517 l 125 471 l 100 471 q 79 464 89 471 q 69 438 69 457 l 69 76 q 80 51 69 57 q 100 44 90 44 l 336 44 q 369 76 369 44 l 369 438 q 347 468 369 460 l 296 468 l 296 514 l 551 514 l 551 468 l 411 468 z "},"౯":{"ha":582,"x_min":49,"x_max":492,"o":"m 122 415 q 98 405 106 415 q 90 379 90 394 l 90 282 q 101 253 90 263 q 122 244 111 244 l 339 244 l 339 201 l 122 201 q 90 164 90 201 l 90 79 q 99 53 90 63 q 122 44 108 44 l 339 44 l 339 0 l 117 0 q 69 19 90 0 q 49 71 49 39 l 49 171 q 52 192 49 181 q 67 224 56 204 l 60 235 q 49 274 49 247 l 49 385 q 69 439 49 418 q 117 460 89 460 l 492 460 l 492 415 l 122 415 z "},"౸":{"ha":521,"x_min":13,"x_max":440,"o":"m 357 -92 l 332 -92 l 332 -49 l 354 -49 q 399 -8 399 -49 l 399 96 q 392 116 399 107 q 369 135 386 125 q 329 118 346 118 l 67 118 q 30 134 47 118 q 13 182 13 150 l 13 456 q 30 498 13 482 q 67 514 47 514 l 329 514 q 371 499 353 514 q 389 456 389 483 l 389 175 q 440 96 440 147 l 440 -7 q 415 -69 440 -46 q 357 -92 389 -92 m 347 436 q 338 463 347 456 q 317 469 328 469 l 85 469 q 62 463 71 469 q 53 436 53 456 l 53 196 q 62 168 53 176 q 85 160 71 160 l 317 160 q 347 196 347 160 l 347 436 z "},"౹":{"ha":169,"x_min":67,"x_max":110,"o":"m 104 -3 l 72 -3 q 68 3 67 -3 q 69 15 69 10 l 69 485 q 68 497 69 492 q 72 501 67 501 l 104 501 q 109 497 110 501 q 108 485 108 492 l 108 15 q 109 3 108 10 q 104 -3 110 -3 z "},"౺":{"ha":410,"x_min":35,"x_max":335,"o":"m 319 -111 l 308 -111 q 293 -94 293 -111 l 293 107 q 267 93 276 96 q 250 88 257 90 q 214 82 236 83 q 204 81 213 81 l 183 81 l 156 81 q 68 115 101 81 q 35 207 35 150 l 35 471 q 47 492 35 492 l 60 492 q 71 485 67 492 q 75 472 75 479 l 75 210 q 158 126 75 126 l 217 126 q 293 215 293 126 l 293 472 q 308 492 293 492 l 319 492 q 331 485 326 492 q 335 472 335 479 l 335 -94 q 319 -111 335 -111 z "},"౻":{"ha":589,"x_min":21,"x_max":514,"o":"m 497 -111 l 485 -111 q 468 -94 468 -111 l 468 104 q 432 86 444 89 q 407 83 419 83 q 378 82 394 83 q 350 81 361 81 q 299 92 319 81 q 258 132 279 104 l 236 107 l 222 94 q 179 83 207 83 q 155 82 168 83 q 131 81 142 81 q 47 117 72 81 q 21 207 21 154 l 21 471 q 23 485 21 479 q 35 492 25 492 l 47 492 q 60 485 56 492 q 64 472 64 479 l 64 210 q 78 147 64 167 q 133 126 93 126 l 178 126 q 220 148 208 126 q 240 203 232 169 l 240 207 l 240 471 q 242 485 240 479 q 254 492 244 492 l 267 492 q 279 485 275 492 q 283 472 283 479 l 283 210 q 298 147 283 167 q 353 126 313 126 l 406 126 q 455 147 442 126 q 468 215 468 168 l 468 472 q 485 492 468 492 l 497 492 q 510 485 506 492 q 514 472 514 479 l 514 -94 q 497 -111 514 -111 z "},"౼":{"ha":750,"x_min":39,"x_max":658,"o":"m 39 299 l 39 361 l 658 361 l 658 299 l 39 299 z "},"౽":{"ha":711,"x_min":13,"x_max":618,"o":"m 538 0 l 90 0 q 35 23 58 0 q 13 85 13 46 l 13 169 q 35 231 13 210 q 90 253 58 253 l 276 253 q 317 292 317 253 l 317 344 q 276 386 317 386 l 93 386 q 66 375 78 386 q 54 344 54 364 l 54 326 l 13 326 l 13 343 q 35 405 13 382 q 90 428 58 428 l 279 428 q 335 405 310 428 q 360 343 360 382 l 360 293 q 335 233 360 256 q 279 211 310 211 l 93 211 q 66 200 78 211 q 54 169 54 189 l 54 85 q 66 51 54 61 q 93 42 78 42 l 535 42 q 565 53 554 42 q 576 85 576 65 l 576 99 l 618 99 l 618 85 q 593 23 618 46 q 538 0 568 0 z "},"౾":{"ha":696,"x_min":13,"x_max":590,"o":"m 511 0 l 90 0 q 35 24 58 0 q 13 85 13 47 l 13 104 q 35 167 13 143 q 90 190 58 190 l 236 190 q 265 199 251 190 q 278 229 278 208 l 278 243 q 266 274 278 263 q 236 285 254 285 l 106 285 q 51 307 74 285 q 28 368 28 329 l 28 388 q 51 449 28 425 q 106 474 74 474 l 253 474 q 281 483 268 474 q 293 513 293 492 l 293 539 q 253 579 293 579 l 22 579 l 17 624 l 256 624 q 310 600 286 624 q 335 539 335 576 l 335 514 q 310 452 335 475 q 256 429 286 429 l 108 429 q 81 420 93 429 q 69 388 69 411 l 69 368 q 81 338 69 349 q 108 326 93 326 l 239 326 q 295 302 271 326 q 319 242 319 278 l 319 231 q 294 171 319 194 q 239 147 269 147 l 92 147 q 54 104 54 147 l 54 85 q 92 43 54 43 l 508 43 q 536 54 524 43 q 549 85 549 65 l 549 100 l 590 100 l 590 85 q 566 24 590 47 q 511 0 542 0 z "},"౿":{"ha":751,"x_min":13,"x_max":654,"o":"m 576 0 l 89 0 q 35 24 58 0 q 13 83 13 47 l 13 432 q 35 492 13 468 q 89 515 58 515 l 317 515 q 372 491 347 515 q 396 432 396 467 l 396 410 q 372 347 396 369 q 317 324 347 324 l 264 324 q 212 347 236 324 q 188 410 188 369 l 188 472 l 92 472 q 56 432 56 472 l 56 83 q 92 43 56 43 l 574 43 q 599 53 589 43 q 611 94 608 63 l 654 94 q 627 23 650 46 q 576 0 604 0 m 353 432 q 314 472 353 472 l 231 472 l 231 408 q 241 376 231 385 q 267 368 251 368 l 314 368 q 353 408 353 368 l 353 432 z "},"‌":{"ha":0,"x_min":0,"x_max":42,"o":"m 0 -546 l 0 1200 l 42 1200 l 42 -546 l 0 -546 z "},"‍":{"ha":0,"x_min":0,"x_max":204,"o":"m 0 -546 l 0 1200 l 204 1200 l 204 1154 l 42 1154 l 42 -546 l 0 -546 z "},"–":{"ha":393,"x_min":50,"x_max":338,"o":"m 338 251 l 338 204 l 338 203 l 328 203 l 317 203 l 69 203 l 50 203 l 50 204 l 50 251 l 69 251 l 317 251 l 331 251 l 338 251 z "},"—":{"ha":488,"x_min":50,"x_max":432,"o":"m 429 249 q 432 247 432 249 l 432 197 q 429 194 432 194 l 408 194 l 71 194 l 50 194 l 50 249 l 71 249 l 408 249 q 419 249 414 249 q 429 249 425 250 z "},"‘":{"ha":174,"x_min":61,"x_max":93,"o":"m 89 381 l 65 381 q 65 381 64 381 q 65 383 67 382 q 61 400 61 400 l 68 588 q 69 595 69 592 q 71 601 69 599 q 90 603 76 604 q 93 597 93 603 q 93 585 93 592 l 93 400 q 93 388 93 394 q 89 381 93 381 z "},"’":{"ha":174,"x_min":78,"x_max":101,"o":"m 94 603 q 97 599 96 601 q 101 588 100 592 q 101 583 101 585 l 92 394 q 88 381 90 382 q 79 383 82 381 q 78 388 78 385 l 78 399 l 78 581 q 78 588 78 583 q 81 599 78 593 q 83 603 82 601 l 94 603 z "},"“":{"ha":311,"x_min":78,"x_max":226,"o":"m 210 381 l 194 381 q 179 400 179 381 l 179 467 q 183 501 179 478 q 190 538 188 518 q 196 589 192 558 q 215 603 203 600 q 226 585 226 606 l 226 400 q 222 385 226 390 q 210 381 217 381 m 108 381 l 93 381 q 78 400 78 381 l 78 467 q 81 503 78 474 q 94 586 85 533 q 113 606 99 604 q 126 585 126 608 l 126 400 q 122 387 126 393 q 108 381 117 381 z "},"”":{"ha":311,"x_min":78,"x_max":226,"o":"m 208 393 q 190 381 201 382 q 179 399 179 379 l 179 581 q 183 596 179 589 q 194 603 186 603 l 210 603 q 222 596 218 603 q 226 581 226 589 l 226 517 q 222 477 226 508 q 208 393 218 446 m 125 504 l 121 478 l 107 393 q 87 382 96 378 q 78 399 78 386 l 78 581 q 81 596 78 589 q 93 603 85 603 l 108 603 q 122 595 118 603 q 126 581 126 588 l 126 517 q 126 510 126 513 q 125 504 125 507 z "},"•":{"ha":257,"x_min":106,"x_max":144,"o":"m 135 225 l 114 225 q 106 244 106 225 l 106 353 q 114 372 106 372 l 135 372 q 143 364 142 372 q 144 353 144 356 l 144 244 q 143 233 144 242 q 135 225 142 225 z "},"…":{"ha":557,"x_min":82,"x_max":469,"o":"m 447 0 l 431 0 q 410 21 410 0 l 410 108 q 431 129 410 129 l 447 129 q 469 108 469 129 l 469 21 q 447 0 469 0 m 283 0 l 267 0 q 246 21 246 0 l 246 108 q 267 129 246 129 l 283 129 q 306 108 306 129 l 306 21 q 283 0 306 0 m 119 0 l 103 0 q 82 21 82 0 l 82 108 q 103 129 82 129 l 119 129 q 142 108 142 129 l 142 21 q 119 0 142 0 z "},"₹":{"ha":368,"x_min":44,"x_max":324,"o":"m 254 26 l 254 21 q 256 18 256 19 l 256 17 q 251 3 256 6 q 242 0 247 0 l 232 0 q 214 11 221 0 l 60 253 l 44 274 l 44 297 q 61 315 44 315 l 126 315 q 178 334 163 315 q 193 397 193 353 l 193 413 l 61 413 q 44 429 44 413 l 44 438 q 61 454 44 454 l 193 454 l 193 471 q 138 540 193 540 l 61 540 q 44 560 44 540 l 44 567 q 61 583 44 583 l 307 583 q 324 567 324 583 l 324 560 q 307 540 324 540 l 217 540 q 231 504 228 518 q 235 471 235 490 l 235 454 l 307 454 q 324 438 324 454 l 324 429 q 307 413 324 413 l 235 413 l 235 397 q 205 300 235 331 q 125 269 175 269 l 101 269 l 254 26 z "},"℃":{"ha":515,"x_min":13,"x_max":436,"o":"m 92 646 l 67 646 q 13 704 13 646 l 13 779 q 24 827 13 814 q 67 840 36 840 l 92 840 q 147 779 147 840 l 147 704 q 92 646 147 646 m 313 0 l 203 0 q 113 34 144 0 q 81 135 81 68 l 81 475 q 113 573 81 536 q 203 610 146 610 l 313 610 q 403 573 369 610 q 436 475 436 536 l 436 429 q 432 416 436 422 q 419 410 428 410 l 408 410 q 393 429 393 410 l 393 472 q 313 563 393 563 l 203 563 q 124 472 124 563 l 124 136 q 203 46 124 46 l 313 46 q 393 136 393 46 l 393 179 q 408 197 393 197 l 419 197 q 436 179 436 197 l 436 135 q 403 34 436 68 q 313 0 371 0 m 114 778 q 110 797 114 790 q 90 804 106 804 l 67 804 q 49 796 51 804 q 46 778 46 788 l 46 707 q 49 689 46 696 q 67 682 51 682 l 90 682 q 110 688 106 682 q 114 707 114 693 l 114 778 z "},"℉":{"ha":439,"x_min":13,"x_max":375,"o":"m 90 646 l 65 646 q 13 704 13 646 l 13 779 q 65 840 13 840 l 90 840 q 144 779 144 840 l 144 704 q 90 646 144 646 m 358 563 l 131 563 l 131 324 l 336 324 q 353 308 353 324 l 353 297 q 336 279 353 279 l 131 279 l 131 18 q 115 0 131 0 l 103 0 q 88 18 88 0 l 88 590 q 103 610 88 610 l 358 610 q 375 592 375 610 l 375 579 q 358 563 375 563 m 111 778 q 108 796 111 788 q 89 804 104 804 l 65 804 q 46 785 46 804 l 46 778 l 46 707 l 46 700 q 65 682 46 682 l 89 682 q 108 689 104 682 q 111 707 111 696 l 111 778 z "},"⅓":{"ha":1008,"x_min":82,"x_max":992,"o":"m 943 242 q 946 238 943 240 l 967 210 q 992 132 992 181 q 948 25 992 63 q 824 -12 904 -12 q 697 27 742 -12 q 653 139 653 67 l 653 143 l 711 143 q 743 59 715 85 q 821 33 771 33 q 935 132 935 33 q 904 203 935 182 q 808 224 874 224 l 796 224 l 783 224 l 783 265 l 806 265 q 890 286 860 265 q 919 351 919 307 q 894 410 919 388 q 825 432 868 432 q 753 408 779 432 q 722 329 726 385 l 669 329 q 717 441 676 408 q 825 474 757 474 q 937 442 899 474 q 975 351 975 410 q 956 289 975 315 q 947 276 950 282 q 940 267 943 271 q 935 257 936 263 q 943 242 931 244 m 279 -40 l 207 -40 l 751 853 l 822 853 l 279 -40 m 214 350 l 214 731 q 188 723 206 726 q 151 718 171 719 q 113 716 131 717 q 90 715 96 715 l 82 715 l 82 747 l 85 747 q 177 767 144 747 q 218 843 210 786 l 268 843 l 268 350 l 214 350 z "},"←":{"ha":1049,"x_min":71,"x_max":1003,"o":"m 283 404 q 322 351 310 372 q 343 308 333 329 q 359 260 353 288 q 368 197 365 232 q 233 338 303 282 q 71 435 163 394 q 157 476 117 453 q 233 527 197 499 q 303 590 269 556 q 368 668 336 625 q 359 608 365 636 q 343 556 353 579 q 320 508 332 528 q 286 464 308 489 l 1003 464 l 1003 404 l 283 404 z "},"↑":{"ha":585,"x_min":76,"x_max":524,"o":"m 419 628 q 372 652 392 640 q 328 692 353 664 l 328 -50 l 274 -50 l 274 689 q 221 650 242 663 q 181 628 200 638 q 76 603 140 608 q 210 739 158 668 q 299 906 263 810 q 341 813 318 854 q 390 736 364 771 q 451 669 418 701 q 524 603 483 638 q 468 612 493 607 q 419 628 443 617 z "},"→":{"ha":1050,"x_min":53,"x_max":983,"o":"m 818 339 q 686 197 751 285 q 713 311 690 261 q 735 356 724 336 q 767 404 746 376 l 53 404 l 53 464 l 769 464 q 749 493 757 482 q 735 515 742 504 q 722 536 728 526 q 713 557 717 546 q 688 665 693 608 q 819 526 750 582 q 983 435 889 471 q 894 390 935 413 q 818 339 853 367 z "},"↓":{"ha":586,"x_min":85,"x_max":529,"o":"m 396 129 q 347 51 369 93 q 304 -42 324 10 q 263 49 285 7 q 216 128 242 90 q 158 199 190 165 q 85 265 125 232 q 138 256 113 263 q 186 239 163 249 q 226 217 206 231 q 279 181 247 204 l 279 915 l 333 915 l 333 179 q 378 215 358 203 q 424 239 399 228 q 476 255 451 249 q 529 264 501 261 q 456 199 489 232 q 396 129 424 165 z "},"−":{"ha":854,"x_min":39,"x_max":781,"o":"m 39 247 l 39 353 l 781 353 l 781 247 l 39 247 z "},"◌":{"ha":875,"x_min":63,"x_max":813,"o":"m 388 589 q 403 624 388 610 q 438 639 417 639 q 472 624 458 639 q 488 589 488 610 q 472 554 488 568 q 438 539 458 539 q 403 554 417 539 q 388 589 388 568 m 388 -61 q 403 -26 388 -40 q 438 -11 417 -11 q 472 -26 458 -11 q 488 -61 488 -40 q 472 -96 488 -82 q 438 -111 458 -111 q 403 -96 417 -111 q 388 -61 388 -82 m 63 264 q 78 299 63 285 q 113 314 92 314 q 147 299 133 314 q 163 264 163 285 q 147 229 163 243 q 113 214 133 214 q 78 229 92 214 q 63 264 63 243 m 713 264 q 728 299 713 285 q 763 314 742 314 q 797 299 783 314 q 813 264 813 285 q 797 229 813 243 q 763 214 783 214 q 728 229 742 214 q 713 264 713 243 m 107 101 q 122 136 107 122 q 157 151 136 151 q 192 136 178 151 q 207 101 207 122 q 192 67 207 81 q 157 51 178 51 q 122 67 136 51 q 107 101 107 81 m 669 426 q 685 461 669 447 q 719 476 699 476 q 754 461 740 476 q 769 426 769 447 q 754 392 769 406 q 719 376 740 376 q 685 392 699 376 q 669 426 669 406 m 550 546 q 565 581 550 567 q 600 596 579 596 q 635 581 621 596 q 650 546 650 567 q 635 511 650 525 q 600 496 621 496 q 565 511 579 496 q 550 546 550 525 m 225 -17 q 240 18 225 4 q 275 33 254 33 q 310 18 296 33 q 325 -17 325 4 q 310 -53 325 -37 q 275 -68 296 -68 q 240 -53 254 -68 q 225 -17 225 -37 m 107 426 q 122 461 107 447 q 157 476 136 476 q 192 461 178 476 q 207 426 207 447 q 192 392 207 406 q 157 376 178 376 q 122 392 136 376 q 107 426 107 406 m 669 101 q 685 136 669 122 q 719 151 699 151 q 754 136 740 151 q 769 101 769 122 q 754 67 769 81 q 719 51 740 51 q 685 67 699 51 q 669 101 669 81 m 225 546 q 240 581 225 567 q 275 596 254 596 q 310 581 296 596 q 325 546 325 567 q 310 511 325 525 q 275 496 296 496 q 240 511 254 496 q 225 546 225 525 m 550 -17 q 565 18 550 4 q 600 33 579 33 q 635 18 621 33 q 650 -17 650 4 q 635 -53 650 -37 q 600 -68 621 -68 q 565 -53 579 -68 q 550 -17 550 -37 z "}}}
